M48
; DRILL file {KiCad 9.0.7} date 2026-02-04T11:21:43-0500
; FORMAT={-:-/ absolute / metric / decimal}
; #@! TF.CreationDate,2026-02-04T11:21:43-05:00
; #@! TF.GenerationSoftware,Kicad,Pcbnew,9.0.7
; #@! TF.FileFunction,Plated,1,6,PTH
FMAT,2
METRIC
; #@! TA.AperFunction,Plated,PTH,ViaDrill
T1C0.300
; #@! TA.AperFunction,Plated,PTH,ComponentDrill
T2C0.800
; #@! TA.AperFunction,Plated,PTH,ComponentDrill
T3C1.000
; #@! TA.AperFunction,Plated,PTH,ComponentDrill
T4C1.100
; #@! TA.AperFunction,Plated,PTH,ComponentDrill
T5C1.200
; #@! TA.AperFunction,Plated,PTH,ComponentDrill
T6C1.300
; #@! TA.AperFunction,Plated,PTH,ComponentDrill
T7C1.600
; #@! TA.AperFunction,Plated,PTH,ComponentDrill
T8C1.600
; #@! TA.AperFunction,Plated,PTH,ComponentDrill
T9C2.600
%
G90
G05
T1
X18.0Y-106.5
X18.0Y-108.5
X18.0Y-110.5
X18.0Y-112.5
X18.0Y-114.5
X18.0Y-116.5
X18.0Y-118.5
X19.0Y-107.5
X19.0Y-109.5
X19.0Y-111.5
X19.0Y-113.5
X19.0Y-115.5
X19.0Y-117.5
X20.0Y-106.5
X20.0Y-108.5
X20.0Y-110.5
X20.0Y-112.5
X20.0Y-114.5
X20.0Y-116.5
X20.0Y-118.5
X21.0Y-107.5
X21.0Y-109.5
X21.0Y-111.5
X21.0Y-113.5
X21.0Y-115.5
X21.0Y-117.5
X22.0Y-106.5
X22.0Y-108.5
X22.0Y-110.5
X22.0Y-112.5
X22.0Y-114.5
X22.0Y-116.5
X22.0Y-118.5
X23.0Y-107.5
X23.0Y-109.5
X23.0Y-111.5
X23.0Y-113.5
X23.0Y-115.5
X23.0Y-117.5
X24.0Y-106.5
X24.0Y-108.5
X24.0Y-110.5
X24.0Y-112.5
X24.0Y-114.5
X24.0Y-116.5
X24.0Y-118.5
X25.0Y-107.5
X25.0Y-109.5
X25.0Y-111.5
X25.0Y-113.5
X25.0Y-115.5
X25.0Y-117.5
X26.0Y-106.5
X26.0Y-108.5
X26.0Y-110.5
X26.0Y-112.5
X26.0Y-114.5
X26.0Y-116.5
X26.0Y-118.5
X26.5Y-64.5
X26.5Y-65.5
X26.5Y-66.5
X26.5Y-67.5
X26.5Y-68.5
X27.0Y-107.5
X27.0Y-109.5
X27.0Y-111.5
X27.0Y-113.5
X27.0Y-115.5
X27.0Y-117.5
X27.5Y-64.5
X27.5Y-65.5
X27.5Y-66.5
X27.5Y-67.5
X27.5Y-68.5
X27.7Y-32.6
X28.0Y-106.5
X28.0Y-108.5
X28.0Y-110.5
X28.0Y-112.5
X28.0Y-114.5
X28.0Y-116.5
X28.0Y-118.5
X28.5Y-64.5
X28.5Y-65.5
X28.5Y-66.5
X28.5Y-67.5
X28.5Y-68.5
X29.0Y-107.5
X29.0Y-109.5
X29.0Y-111.5
X29.0Y-113.5
X29.0Y-115.5
X29.0Y-117.5
X29.5Y-64.5
X29.5Y-65.5
X29.5Y-66.5
X29.5Y-67.5
X29.5Y-68.5
X30.0Y-106.5
X30.0Y-108.5
X30.0Y-110.5
X30.0Y-112.5
X30.0Y-114.5
X30.0Y-116.5
X30.0Y-118.5
X30.5Y-64.5
X30.5Y-65.5
X30.5Y-66.5
X30.5Y-67.5
X30.5Y-68.5
X31.5Y-64.5
X31.5Y-65.5
X31.5Y-66.5
X31.5Y-67.5
X31.5Y-68.5
X33.5Y-64.5
X33.5Y-65.5
X33.5Y-66.5
X33.5Y-67.5
X33.5Y-68.5
X34.0Y-59.0
X34.5Y-64.5
X34.5Y-65.5
X34.5Y-66.5
X34.5Y-67.5
X34.5Y-68.5
X35.5Y-64.5
X35.5Y-65.5
X35.5Y-66.5
X35.5Y-67.5
X35.5Y-68.5
X36.5Y-64.5
X36.5Y-65.5
X36.5Y-66.5
X36.5Y-67.5
X36.5Y-68.5
X37.0Y-24.5
X37.0Y-25.5
X37.0Y-26.5
X37.0Y-27.5
X37.0Y-28.5
X37.0Y-29.5
X37.0Y-30.5
X37.0Y-31.5
X37.0Y-32.5
X37.0Y-33.5
X37.0Y-34.5
X37.2Y-53.4
X37.2Y-54.1
X37.5Y-64.5
X37.5Y-65.5
X37.5Y-66.5
X37.5Y-67.5
X37.5Y-68.5
X38.0Y-24.5
X38.0Y-25.5
X38.0Y-26.5
X38.0Y-27.5
X38.0Y-28.5
X38.0Y-29.5
X38.0Y-30.5
X38.0Y-31.5
X38.0Y-32.5
X38.0Y-33.5
X38.0Y-34.5
X38.5Y-64.5
X38.5Y-65.5
X38.5Y-66.5
X38.5Y-67.5
X38.5Y-68.5
X38.75Y-49.5
X38.75Y-50.25
X39.1Y-57.2
X39.1Y-58.1
X39.1Y-59.1
X41.6Y-52.2
X42.117Y-71.045
X42.117Y-72.545
X42.117Y-79.045
X42.117Y-81.045
X42.32Y-86.5
X42.32Y-87.5
X42.32Y-88.5
X42.32Y-89.5
X42.32Y-90.5
X42.32Y-91.5
X42.32Y-92.5
X42.32Y-95.0
X42.32Y-96.0
X42.32Y-97.0
X42.32Y-98.0
X42.32Y-99.0
X42.32Y-100.0
X42.5Y-62.0
X42.5Y-63.0
X42.617Y-69.045
X42.617Y-70.045
X42.617Y-78.045
X42.617Y-80.045
X43.117Y-79.045
X43.117Y-81.045
X43.32Y-86.5
X43.32Y-87.5
X43.32Y-88.5
X43.32Y-89.5
X43.32Y-90.5
X43.32Y-91.5
X43.32Y-92.5
X43.32Y-95.0
X43.32Y-96.0
X43.32Y-97.0
X43.32Y-98.0
X43.32Y-99.0
X43.32Y-100.0
X43.5Y-59.2
X43.5Y-62.0
X43.5Y-63.0
X43.617Y-69.045
X43.617Y-70.045
X43.617Y-78.045
X43.617Y-80.045
X44.117Y-79.045
X44.117Y-81.045
X44.32Y-86.5
X44.32Y-87.5
X44.32Y-88.5
X44.32Y-89.5
X44.32Y-90.5
X44.32Y-91.5
X44.32Y-92.5
X44.32Y-95.0
X44.32Y-96.0
X44.32Y-97.0
X44.32Y-98.0
X44.32Y-99.0
X44.32Y-100.0
X44.5Y-62.0
X44.5Y-63.0
X44.617Y-69.045
X44.617Y-70.045
X44.617Y-78.045
X44.617Y-80.045
X45.117Y-79.045
X45.117Y-81.045
X45.32Y-86.5
X45.32Y-87.5
X45.32Y-88.5
X45.32Y-89.5
X45.32Y-90.5
X45.32Y-91.5
X45.32Y-92.5
X45.32Y-95.0
X45.32Y-96.0
X45.32Y-97.0
X45.32Y-98.0
X45.32Y-99.0
X45.32Y-100.0
X45.617Y-69.045
X45.617Y-70.045
X45.617Y-78.045
X45.617Y-80.045
X45.75Y-63.25
X46.0Y-106.0
X46.0Y-108.0
X46.0Y-110.0
X46.0Y-112.0
X46.0Y-114.0
X46.0Y-116.0
X46.0Y-118.0
X46.0Y-120.0
X46.117Y-79.045
X46.117Y-81.045
X46.32Y-86.5
X46.32Y-87.5
X46.32Y-88.5
X46.32Y-89.5
X46.32Y-90.5
X46.32Y-97.0
X46.32Y-98.0
X46.32Y-99.0
X46.32Y-100.0
X46.617Y-78.045
X46.617Y-80.045
X47.0Y-107.0
X47.0Y-109.0
X47.0Y-111.0
X47.0Y-113.0
X47.0Y-115.0
X47.0Y-117.0
X47.0Y-119.0
X47.117Y-79.045
X47.117Y-81.045
X47.32Y-86.5
X47.32Y-87.5
X47.32Y-88.5
X47.32Y-89.5
X47.32Y-90.5
X47.32Y-97.0
X47.32Y-98.0
X47.32Y-99.0
X47.32Y-100.0
X47.617Y-78.045
X47.617Y-80.045
X48.0Y-106.0
X48.0Y-108.0
X48.0Y-110.0
X48.0Y-112.0
X48.0Y-114.0
X48.0Y-116.0
X48.0Y-118.0
X48.0Y-120.0
X48.117Y-79.045
X48.117Y-81.045
X48.32Y-86.5
X48.32Y-87.5
X48.32Y-88.5
X48.32Y-89.5
X48.32Y-90.5
X48.617Y-78.045
X48.617Y-80.045
X49.0Y-107.0
X49.0Y-109.0
X49.0Y-111.0
X49.0Y-113.0
X49.0Y-115.0
X49.0Y-117.0
X49.0Y-119.0
X49.32Y-86.5
X49.32Y-87.5
X49.32Y-88.5
X49.32Y-89.5
X49.32Y-90.5
X49.921Y-61.0
X50.0Y-106.0
X50.0Y-108.0
X50.0Y-110.0
X50.0Y-112.0
X50.0Y-114.0
X50.0Y-116.0
X50.0Y-118.0
X50.0Y-120.0
X50.617Y-70.545
X50.617Y-71.545
X50.62Y-104.3
X50.78Y-94.96
X50.82Y-101.0
X51.0Y-107.0
X51.0Y-109.0
X51.0Y-111.0
X51.0Y-113.0
X51.0Y-115.0
X51.0Y-117.0
X51.0Y-119.0
X51.617Y-70.545
X51.617Y-71.545
X51.82Y-101.0
X52.0Y-106.0
X52.0Y-108.0
X52.0Y-110.0
X52.0Y-112.0
X52.0Y-114.0
X52.0Y-116.0
X52.0Y-118.0
X52.0Y-120.0
X52.617Y-70.545
X52.617Y-71.545
X52.82Y-101.0
X53.617Y-70.545
X53.617Y-71.545
X54.617Y-70.545
X54.617Y-71.545
X54.617Y-72.545
X55.12Y-98.1
X55.617Y-70.545
X55.617Y-71.545
X55.617Y-72.545
X56.02Y-98.1
X56.617Y-70.545
X56.617Y-71.545
X56.617Y-72.545
X56.617Y-73.545
X57.0Y-100.5
X57.617Y-70.545
X57.617Y-71.545
X57.617Y-72.545
X57.617Y-73.545
X58.12Y-103.3
X58.617Y-70.545
X58.617Y-71.545
X58.617Y-72.545
X58.617Y-73.545
X58.72Y-98.4
X59.617Y-71.545
X59.617Y-72.545
X59.617Y-73.545
X59.62Y-98.4
X60.617Y-71.545
X60.617Y-72.545
X60.617Y-73.545
X61.0Y-136.5
X61.0Y-137.5
X61.5Y-97.5
X61.5Y-98.5
X61.5Y-148.5
X61.5Y-149.5
X61.617Y-73.545
X62.0Y-136.5
X62.0Y-137.5
X62.5Y-97.5
X62.5Y-98.5
X62.5Y-148.5
X62.5Y-149.5
X62.617Y-73.545
X63.0Y-136.5
X63.0Y-137.5
X63.5Y-97.5
X63.5Y-98.5
X63.5Y-148.5
X63.5Y-149.5
X63.617Y-73.545
X64.0Y-136.5
X64.0Y-137.5
X64.5Y-97.5
X64.5Y-98.5
X64.5Y-148.5
X64.5Y-149.5
X64.617Y-73.545
X65.0Y-136.5
X65.0Y-137.5
X65.5Y-97.5
X65.5Y-98.5
X65.5Y-148.5
X65.5Y-149.5
X65.617Y-73.545
X65.75Y-59.75
X66.5Y-97.5
X66.5Y-98.5
X66.5Y-148.5
X66.5Y-149.5
X66.617Y-73.545
X67.5Y-97.5
X67.5Y-98.5
X67.617Y-73.545
X68.5Y-97.5
X68.5Y-98.5
X68.617Y-73.545
X69.5Y-97.5
X69.5Y-98.5
X69.617Y-73.545
X69.979Y-141.523
X70.0Y-138.0
X70.0Y-148.5
X70.0Y-149.5
X70.5Y-97.5
X70.5Y-98.5
X70.617Y-73.545
X71.0Y-139.5
X71.0Y-148.5
X71.0Y-149.5
X71.5Y-97.5
X71.5Y-98.5
X72.0Y-139.5
X72.0Y-142.75
X72.0Y-148.5
X72.0Y-149.5
X72.5Y-97.5
X72.5Y-98.5
X72.992Y-142.034
X73.0Y-139.5
X73.0Y-148.5
X73.0Y-149.5
X73.32Y-95.0
X74.0Y-148.5
X74.0Y-149.5
X75.0Y-99.0
X75.0Y-100.0
X75.0Y-139.0
X75.0Y-148.5
X75.0Y-149.5
X76.0Y-99.0
X76.0Y-100.0
X76.5Y-133.5
X76.5Y-134.5
X76.5Y-135.5
X76.5Y-136.5
X76.5Y-137.5
X76.5Y-138.5
X77.0Y-99.0
X77.0Y-100.0
X77.5Y-133.5
X77.5Y-134.5
X77.5Y-135.5
X77.5Y-136.5
X77.5Y-137.5
X77.5Y-138.5
X78.0Y-99.0
X78.0Y-100.0
X78.0Y-117.5
X78.0Y-118.5
X78.0Y-119.5
X78.0Y-120.5
X78.0Y-121.5
X78.0Y-122.5
X78.25Y-148.5
X78.5Y-137.5
X78.5Y-138.5
X78.75Y-149.5
X79.0Y-99.0
X79.0Y-100.0
X79.0Y-117.5
X79.0Y-122.5
X79.25Y-148.5
X79.5Y-137.5
X79.5Y-138.5
X79.75Y-149.5
X80.0Y-99.0
X80.0Y-100.0
X80.0Y-117.5
X80.0Y-122.5
X80.25Y-148.5
X80.5Y-137.5
X80.5Y-138.5
X80.75Y-149.5
X80.82Y-77.5
X80.82Y-78.5
X80.82Y-79.5
X80.82Y-80.5
X80.82Y-81.5
X80.82Y-82.5
X81.0Y-99.0
X81.0Y-100.0
X81.0Y-117.5
X81.0Y-122.5
X81.25Y-148.5
X81.5Y-137.5
X81.5Y-138.5
X81.75Y-149.5
X81.82Y-77.5
X81.82Y-78.5
X81.82Y-79.5
X81.82Y-80.5
X81.82Y-81.5
X81.82Y-82.5
X82.0Y-99.0
X82.0Y-100.0
X82.0Y-117.5
X82.0Y-122.5
X82.25Y-148.5
X82.5Y-137.5
X82.5Y-138.5
X82.75Y-149.5
X82.82Y-77.5
X82.82Y-78.5
X82.82Y-79.5
X82.82Y-80.5
X82.82Y-81.5
X82.82Y-82.5
X83.0Y-99.0
X83.0Y-100.0
X83.0Y-117.5
X83.0Y-122.5
X83.25Y-148.5
X83.5Y-137.5
X83.5Y-138.5
X83.75Y-149.5
X83.82Y-77.5
X83.82Y-78.5
X83.82Y-79.5
X83.82Y-80.5
X83.82Y-81.5
X83.82Y-82.5
X84.0Y-99.0
X84.0Y-100.0
X84.0Y-117.5
X84.0Y-118.5
X84.0Y-119.5
X84.0Y-120.5
X84.0Y-121.5
X84.0Y-122.5
X84.25Y-148.5
X84.5Y-133.5
X84.5Y-134.5
X84.5Y-135.5
X84.5Y-136.5
X84.5Y-137.5
X84.5Y-138.5
X84.82Y-77.5
X84.82Y-78.5
X84.82Y-79.5
X84.82Y-80.5
X84.82Y-81.5
X84.82Y-82.5
X85.0Y-99.0
X85.0Y-100.0
X85.5Y-133.5
X85.5Y-134.5
X85.5Y-135.5
X85.5Y-136.5
X85.5Y-137.5
X85.5Y-138.5
X85.82Y-77.5
X85.82Y-78.5
X85.82Y-79.5
X85.82Y-80.5
X85.82Y-81.5
X85.82Y-82.5
X86.0Y-99.0
X86.0Y-100.0
X86.0Y-108.0
X86.5Y-107.0
X86.5Y-141.0
X86.82Y-77.5
X86.82Y-78.5
X86.82Y-79.5
X86.82Y-80.5
X86.82Y-81.5
X86.82Y-82.5
X87.0Y-99.0
X87.0Y-100.0
X87.5Y-106.0
X87.5Y-138.0
X87.5Y-148.5
X87.5Y-149.5
X87.82Y-77.5
X87.82Y-78.5
X87.82Y-79.5
X87.82Y-80.5
X87.82Y-81.5
X87.82Y-82.5
X88.5Y-105.0
X88.5Y-139.0
X88.5Y-148.5
X88.5Y-149.5
X88.82Y-77.5
X88.82Y-78.5
X88.82Y-79.5
X88.82Y-80.5
X88.82Y-81.5
X88.82Y-82.5
X89.5Y-139.0
X89.5Y-148.5
X89.5Y-149.5
X89.57Y-142.75
X90.068Y-142.046
X90.5Y-139.0
X90.5Y-148.5
X90.5Y-149.5
X91.257Y-105.0
X91.5Y-148.5
X91.5Y-149.5
X91.672Y-106.0
X92.086Y-107.0
X92.5Y-108.0
X92.5Y-139.0
X92.5Y-148.5
X92.5Y-149.5
X95.0Y-134.0
X95.0Y-135.0
X95.0Y-136.0
X95.0Y-137.0
X95.0Y-138.0
X95.0Y-139.0
X95.5Y-124.5
X95.5Y-125.5
X95.5Y-126.5
X95.5Y-127.5
X95.5Y-128.5
X95.75Y-148.5
X96.0Y-134.0
X96.0Y-135.0
X96.0Y-136.0
X96.0Y-137.0
X96.0Y-138.0
X96.0Y-139.0
X96.25Y-149.5
X96.5Y-123.5
X96.5Y-124.5
X96.5Y-125.5
X96.5Y-126.5
X96.5Y-127.5
X96.5Y-128.5
X96.75Y-148.5
X97.0Y-138.0
X97.0Y-139.0
X97.25Y-149.5
X97.5Y-123.5
X97.5Y-124.5
X97.75Y-148.5
X98.0Y-138.0
X98.0Y-139.0
X98.25Y-149.5
X98.5Y-123.5
X98.5Y-124.5
X98.75Y-148.5
X99.0Y-138.0
X99.0Y-139.0
X99.25Y-149.5
X99.5Y-123.5
X99.5Y-124.5
X99.75Y-148.5
X100.0Y-138.0
X100.0Y-139.0
X100.25Y-149.5
X100.5Y-123.5
X100.5Y-124.5
X100.75Y-148.5
X101.0Y-138.0
X101.0Y-139.0
X101.25Y-149.5
X101.5Y-123.5
X101.5Y-124.5
X101.5Y-125.5
X101.5Y-126.5
X101.5Y-127.5
X101.5Y-128.5
X101.75Y-148.5
X102.0Y-134.0
X102.0Y-135.0
X102.0Y-136.0
X102.0Y-137.0
X102.0Y-138.0
X102.0Y-139.0
X102.5Y-124.5
X102.5Y-125.5
X102.5Y-126.5
X102.5Y-127.5
X102.5Y-128.5
X103.0Y-109.0
X103.0Y-134.0
X103.0Y-135.0
X103.0Y-136.0
X103.0Y-137.0
X103.0Y-138.0
X103.0Y-139.0
X103.4Y-108.0
X104.0Y-107.0
X104.0Y-140.5
X104.5Y-106.0
X105.0Y-105.0
X105.0Y-138.0
X105.0Y-148.5
X105.0Y-149.5
X106.0Y-139.5
X106.0Y-148.5
X106.0Y-149.5
X107.0Y-139.5
X107.0Y-148.5
X107.0Y-149.5
X107.11Y-142.75
X107.548Y-142.043
X108.0Y-139.5
X108.0Y-148.5
X108.0Y-149.5
X108.257Y-105.0
X108.672Y-106.0
X109.0Y-148.5
X109.0Y-149.5
X109.086Y-107.0
X109.5Y-108.0
X110.0Y-109.0
X110.0Y-139.0
X110.0Y-148.5
X110.0Y-149.5
X113.0Y-148.5
X113.5Y-149.5
X114.0Y-137.0
X114.0Y-138.0
X114.0Y-148.5
X114.5Y-149.5
X115.0Y-137.0
X115.0Y-138.0
X115.0Y-148.5
X115.5Y-149.5
X116.0Y-137.0
X116.0Y-138.0
X116.0Y-148.5
X116.5Y-149.5
X117.0Y-137.0
X117.0Y-138.0
X117.0Y-148.5
X117.5Y-149.5
X118.0Y-137.0
X118.0Y-138.0
X118.0Y-148.5
X118.5Y-149.5
X119.0Y-148.5
X119.5Y-100.0
X120.0Y-101.0
X120.5Y-102.0
X120.5Y-103.5
X121.5Y-98.0
X121.5Y-99.0
X121.5Y-140.5
X122.5Y-138.0
X122.5Y-148.5
X122.5Y-149.5
X123.5Y-139.5
X123.5Y-148.5
X123.5Y-149.5
X124.5Y-139.5
X124.5Y-148.5
X124.5Y-149.5
X124.69Y-142.75
X125.25Y-142.05
X125.5Y-139.5
X125.5Y-148.5
X125.5Y-149.5
X125.586Y-98.0
X126.0Y-99.0
X126.0Y-102.0
X126.0Y-103.0
X126.414Y-100.0
X126.5Y-148.5
X126.5Y-149.5
X127.0Y-101.0
X127.5Y-139.0
X127.5Y-148.5
X127.5Y-149.5
X129.0Y-33.0
X131.0Y-148.5
X131.0Y-149.5
X132.0Y-148.5
X132.0Y-149.5
X133.0Y-148.5
X133.0Y-149.5
X133.5Y-137.0
X133.5Y-138.0
X134.0Y-148.5
X134.0Y-149.5
X134.5Y-137.0
X134.5Y-138.0
X135.0Y-148.5
X135.0Y-149.5
X135.5Y-137.0
X135.5Y-138.0
X136.0Y-148.5
X136.0Y-149.5
X136.5Y-137.0
X136.5Y-138.0
X137.5Y-137.0
X137.5Y-138.0
X138.99Y-22.99
X139.0Y-21.5
X139.0Y-24.5
X139.0Y-26.0
X139.0Y-27.5
X139.0Y-29.0
X143.5Y-18.5
X144.5Y-24.5
X145.0Y-92.5
X145.0Y-106.5
X145.0Y-135.5
X146.0Y-20.0
X146.0Y-92.5
X146.0Y-106.5
X147.0Y-26.0
X147.0Y-136.5
X148.5Y-21.5
X149.75Y-27.5
X151.5Y-23.0
X152.25Y-29.0
X152.5Y-148.0
X152.5Y-149.0
X153.0Y-138.5
X153.0Y-139.5
X153.0Y-140.5
X153.0Y-141.5
X153.0Y-142.5
X153.5Y-148.0
X153.5Y-149.0
X154.0Y-24.5
X154.0Y-138.5
X154.0Y-139.5
X154.0Y-140.5
X154.0Y-141.5
X154.0Y-142.5
X154.5Y-148.0
X154.5Y-149.0
X154.8Y-30.5
X155.5Y-148.0
X155.5Y-149.0
X156.5Y-26.0
X156.5Y-148.0
X156.5Y-149.0
X157.3Y-32.0
X158.5Y-105.5
X158.5Y-140.0
X159.0Y-27.5
X159.5Y-105.5
X159.5Y-137.5
X159.5Y-148.0
X159.5Y-149.0
X160.5Y-105.5
X160.5Y-139.0
X160.5Y-148.0
X160.5Y-149.0
X161.47Y-142.25
X161.5Y-29.0
X161.5Y-105.5
X161.5Y-139.0
X161.5Y-148.0
X161.5Y-149.0
X162.0Y-93.0
X162.5Y-139.0
X162.5Y-148.0
X162.5Y-149.0
X162.508Y-141.534
X163.5Y-148.0
X163.5Y-149.0
X164.0Y-30.5
X164.0Y-98.0
X164.5Y-99.0
X164.5Y-138.5
X164.5Y-148.0
X164.5Y-149.0
X165.0Y-100.0
X166.0Y-118.0
X166.0Y-119.0
X166.0Y-120.0
X166.0Y-121.0
X166.0Y-122.0
X166.5Y-32.0
X166.5Y-116.5
X167.0Y-117.5
X167.0Y-118.5
X167.0Y-119.5
X167.0Y-120.5
X167.0Y-121.5
X167.0Y-122.5
X167.5Y-116.5
X167.5Y-148.5
X168.0Y-117.5
X168.0Y-133.5
X168.0Y-134.5
X168.0Y-135.5
X168.0Y-136.5
X168.0Y-137.5
X168.5Y-116.5
X168.5Y-148.5
X169.0Y-117.5
X169.0Y-137.5
X169.5Y-116.5
X169.5Y-146.5
X169.5Y-147.5
X169.5Y-148.5
X170.0Y-117.5
X170.0Y-137.5
X170.0Y-138.5
X170.0Y-139.5
X170.0Y-140.5
X170.5Y-93.0
X170.5Y-106.0
X170.5Y-116.5
X170.5Y-146.5
X170.5Y-147.5
X170.5Y-148.5
X171.0Y-117.5
X171.0Y-137.5
X171.0Y-138.5
X171.0Y-139.5
X171.0Y-140.5
X171.5Y-116.5
X171.5Y-146.5
X171.5Y-147.5
X171.5Y-148.5
X172.0Y-117.5
X172.0Y-137.5
X172.5Y-116.5
X172.5Y-148.5
X173.0Y-117.5
X173.0Y-133.5
X173.0Y-134.5
X173.0Y-135.5
X173.0Y-136.5
X173.0Y-137.5
X173.5Y-116.5
X173.5Y-148.5
X174.0Y-117.5
X174.0Y-118.5
X174.0Y-119.5
X174.0Y-120.5
X174.0Y-121.5
X174.0Y-122.5
X175.5Y-140.0
X176.5Y-106.0
X176.5Y-137.5
X176.5Y-148.0
X176.5Y-149.0
X177.5Y-106.0
X177.5Y-138.5
X177.5Y-148.0
X177.5Y-149.0
X178.5Y-90.0
X178.5Y-106.0
X178.5Y-138.5
X178.5Y-148.0
X178.5Y-149.0
X178.73Y-142.25
X179.3Y-141.55
X179.5Y-138.5
X179.5Y-148.0
X179.5Y-149.0
X180.5Y-98.0
X180.5Y-148.0
X180.5Y-149.0
X181.0Y-99.0
X181.414Y-100.0
X181.5Y-138.5
X181.5Y-148.0
X181.5Y-149.0
X184.5Y-128.0
X184.5Y-129.0
X184.5Y-130.0
X184.5Y-131.0
X184.5Y-148.5
X185.5Y-93.086
X185.5Y-127.5
X185.5Y-128.5
X185.5Y-129.5
X185.5Y-130.5
X185.5Y-131.5
X185.5Y-133.5
X185.5Y-134.5
X185.5Y-135.5
X185.5Y-136.5
X185.5Y-148.5
X185.75Y-105.75
X186.0Y-126.5
X186.5Y-93.5
X186.5Y-127.5
X186.5Y-137.0
X186.5Y-146.5
X186.5Y-147.5
X186.5Y-148.5
X187.0Y-126.5
X187.0Y-138.5
X187.0Y-139.5
X187.0Y-140.5
X187.457Y-93.957
X187.5Y-127.5
X187.5Y-137.0
X187.5Y-146.5
X187.5Y-147.5
X187.5Y-148.5
X188.0Y-126.5
X188.0Y-138.5
X188.0Y-139.5
X188.0Y-140.5
X188.5Y-127.5
X188.5Y-137.0
X188.5Y-146.5
X188.5Y-147.5
X188.5Y-148.5
X189.0Y-126.5
X189.5Y-127.5
X189.5Y-128.5
X189.5Y-129.5
X189.5Y-130.5
X189.5Y-131.5
X189.5Y-133.5
X189.5Y-134.5
X189.5Y-135.5
X189.5Y-136.5
X189.5Y-148.5
X190.5Y-100.5
X190.5Y-128.0
X190.5Y-129.0
X190.5Y-130.0
X190.5Y-131.0
X190.5Y-148.5
X191.25Y-99.75
X192.0Y-99.0
X192.5Y-140.0
X193.5Y-137.5
X193.5Y-148.0
X193.5Y-149.0
X194.5Y-139.0
X194.5Y-148.0
X194.5Y-149.0
X195.5Y-139.0
X195.5Y-148.0
X195.5Y-149.0
X195.7Y-142.25
X196.336Y-141.55
X196.5Y-139.0
X196.5Y-148.0
X196.5Y-149.0
X197.5Y-148.0
X197.5Y-149.0
X198.5Y-138.5
X198.5Y-148.0
X198.5Y-149.0
X201.5Y-148.0
X201.5Y-149.0
X202.5Y-148.0
X202.5Y-149.0
X203.5Y-148.0
X203.5Y-149.0
X204.0Y-138.5
X204.0Y-139.5
X204.0Y-140.5
X204.0Y-141.5
X204.0Y-142.5
X204.5Y-148.0
X204.5Y-149.0
X205.0Y-138.5
X205.0Y-139.5
X205.0Y-140.5
X205.0Y-141.5
X205.0Y-142.5
X205.5Y-148.0
X205.5Y-149.0
T2
X119.203Y-36.136
X119.203Y-58.996
X121.743Y-36.136
X121.743Y-59.0
X124.28Y-36.14
X124.283Y-59.0
X126.82Y-36.14
X126.823Y-59.0
X129.36Y-36.14
X129.363Y-59.0
X131.9Y-36.14
X131.903Y-59.0
X134.44Y-36.14
X134.443Y-59.0
X136.98Y-36.14
X136.983Y-59.0
X139.52Y-36.14
X139.523Y-59.0
X142.06Y-36.14
X142.063Y-59.0
X144.6Y-36.14
X144.603Y-59.0
X147.14Y-36.14
X147.143Y-59.0
X149.68Y-36.14
X149.683Y-59.0
X150.5Y-143.0
X150.5Y-146.5
X152.22Y-36.14
X152.223Y-59.0
X154.76Y-36.14
X154.763Y-59.0
X157.3Y-36.14
X157.303Y-59.0
X159.84Y-36.14
X159.843Y-59.0
X162.38Y-36.14
X162.383Y-59.0
X164.92Y-36.14
X164.923Y-59.0
X167.46Y-36.14
X167.463Y-59.0
X170.0Y-36.14
X170.003Y-59.0
X207.5Y-143.0
X207.5Y-146.5
T3
X48.2Y-102.5
X50.8Y-102.5
X187.5Y-129.868
X187.5Y-134.868
T4
X28.14Y-17.133
X30.68Y-17.133
X35.73Y-17.133
X38.27Y-17.133
X71.09Y-157.5
X73.63Y-157.5
X88.59Y-157.5
X91.13Y-157.5
X98.195Y-18.633
X100.735Y-18.633
X103.275Y-18.633
X105.815Y-18.633
X106.05Y-157.5
X108.59Y-157.5
X110.235Y-18.633
X112.775Y-18.633
X115.315Y-18.633
X117.855Y-18.633
X123.59Y-157.5
X126.13Y-157.5
X160.55Y-157.0
X163.09Y-157.0
X177.55Y-157.0
X180.09Y-157.0
X194.46Y-157.0
X197.0Y-157.0
T5
X34.5Y-121.5
X42.0Y-121.5
X58.5Y-143.5
X58.5Y-148.5
X99.0Y-127.513
X99.0Y-135.013
X139.0Y-143.5
X139.0Y-148.5
T6
X81.0Y-119.88
X81.0Y-135.12
X170.5Y-119.76
X170.5Y-135.0
T7
X28.487Y-137.0
X48.487Y-137.0
T8
X18.798Y-139.691
X18.798Y-149.597
X22.202Y-139.691
X22.202Y-149.597
T9
X34.0Y-150.0
X42.0Y-150.0
M30
