%TF.GenerationSoftware,KiCad,Pcbnew,9.0.7*%
%TF.CreationDate,2026-02-04T11:21:36-05:00*%
%TF.ProjectId,NASA Motherboard V4,4e415341-204d-46f7-9468-6572626f6172,rev?*%
%TF.SameCoordinates,Original*%
%TF.FileFunction,Soldermask,Top*%
%TF.FilePolarity,Negative*%
%FSLAX46Y46*%
G04 Gerber Fmt 4.6, Leading zero omitted, Abs format (unit mm)*
G04 Created by KiCad (PCBNEW 9.0.7) date 2026-02-04 11:21:36*
%MOMM*%
%LPD*%
G01*
G04 APERTURE LIST*
G04 Aperture macros list*
%AMRoundRect*
0 Rectangle with rounded corners*
0 $1 Rounding radius*
0 $2 $3 $4 $5 $6 $7 $8 $9 X,Y pos of 4 corners*
0 Add a 4 corners polygon primitive as box body*
4,1,4,$2,$3,$4,$5,$6,$7,$8,$9,$2,$3,0*
0 Add four circle primitives for the rounded corners*
1,1,$1+$1,$2,$3*
1,1,$1+$1,$4,$5*
1,1,$1+$1,$6,$7*
1,1,$1+$1,$8,$9*
0 Add four rect primitives between the rounded corners*
20,1,$1+$1,$2,$3,$4,$5,0*
20,1,$1+$1,$4,$5,$6,$7,0*
20,1,$1+$1,$6,$7,$8,$9,0*
20,1,$1+$1,$8,$9,$2,$3,0*%
%AMFreePoly0*
4,1,27,0.160002,0.849998,0.160002,0.124998,0.210002,0.074999,0.670001,0.074999,0.720001,0.024999,0.720001,-0.125001,0.670001,-0.175001,0.160002,-0.175001,0.160002,-0.425000,0.670001,-0.425000,0.720001,-0.475000,0.720001,-0.625000,0.670001,-0.675000,0.160002,-0.675000,0.160002,-0.925002,0.670001,-0.925002,0.720001,-0.975002,0.720001,-1.125002,0.670001,-1.175002,0.160002,-1.175002,
0.160002,-1.200000,-0.189997,-1.200000,-0.239997,-1.150000,-0.239997,0.849998,-0.189997,0.899998,0.110002,0.899998,0.160002,0.849998,0.160002,0.849998,$1*%
G04 Aperture macros list end*
%ADD10C,0.100000*%
%ADD11C,0.150000*%
%ADD12C,0.300000*%
%ADD13C,0.400000*%
%ADD14C,0.000000*%
%ADD15RoundRect,0.250001X0.949999X-0.949999X0.949999X0.949999X-0.949999X0.949999X-0.949999X-0.949999X0*%
%ADD16C,2.400000*%
%ADD17RoundRect,0.250000X-0.650000X0.412500X-0.650000X-0.412500X0.650000X-0.412500X0.650000X0.412500X0*%
%ADD18RoundRect,0.237500X0.250000X0.237500X-0.250000X0.237500X-0.250000X-0.237500X0.250000X-0.237500X0*%
%ADD19RoundRect,0.160000X-0.160000X0.197500X-0.160000X-0.197500X0.160000X-0.197500X0.160000X0.197500X0*%
%ADD20RoundRect,0.250000X-1.050000X1.050000X-1.050000X-1.050000X1.050000X-1.050000X1.050000X1.050000X0*%
%ADD21C,2.600000*%
%ADD22R,1.000000X1.500000*%
%ADD23R,2.108200X2.108200*%
%ADD24C,2.108200*%
%ADD25RoundRect,0.250000X1.350000X1.350000X-1.350000X1.350000X-1.350000X-1.350000X1.350000X-1.350000X0*%
%ADD26C,3.200000*%
%ADD27RoundRect,0.250001X0.799999X0.799999X-0.799999X0.799999X-0.799999X-0.799999X0.799999X-0.799999X0*%
%ADD28C,2.100000*%
%ADD29RoundRect,0.250000X-0.550000X0.550000X-0.550000X-0.550000X0.550000X-0.550000X0.550000X0.550000X0*%
%ADD30C,1.600000*%
%ADD31RoundRect,0.250001X-0.799999X-0.799999X0.799999X-0.799999X0.799999X0.799999X-0.799999X0.799999X0*%
%ADD32RoundRect,0.250001X-0.949999X0.949999X-0.949999X-0.949999X0.949999X-0.949999X0.949999X0.949999X0*%
%ADD33RoundRect,0.250000X-0.412500X-0.650000X0.412500X-0.650000X0.412500X0.650000X-0.412500X0.650000X0*%
%ADD34RoundRect,0.160000X0.197500X0.160000X-0.197500X0.160000X-0.197500X-0.160000X0.197500X-0.160000X0*%
%ADD35RoundRect,0.155000X0.212500X0.155000X-0.212500X0.155000X-0.212500X-0.155000X0.212500X-0.155000X0*%
%ADD36RoundRect,0.155000X-0.155000X0.212500X-0.155000X-0.212500X0.155000X-0.212500X0.155000X0.212500X0*%
%ADD37RoundRect,0.250001X-0.949999X-0.949999X0.949999X-0.949999X0.949999X0.949999X-0.949999X0.949999X0*%
%ADD38RoundRect,0.155000X-0.212500X-0.155000X0.212500X-0.155000X0.212500X0.155000X-0.212500X0.155000X0*%
%ADD39RoundRect,0.237500X-0.237500X0.250000X-0.237500X-0.250000X0.237500X-0.250000X0.237500X0.250000X0*%
%ADD40RoundRect,0.237500X0.237500X-0.250000X0.237500X0.250000X-0.237500X0.250000X-0.237500X-0.250000X0*%
%ADD41RoundRect,0.250000X-1.100000X0.412500X-1.100000X-0.412500X1.100000X-0.412500X1.100000X0.412500X0*%
%ADD42R,0.599999X0.249999*%
%ADD43R,0.249999X0.599999*%
%ADD44RoundRect,0.237500X-0.250000X-0.237500X0.250000X-0.237500X0.250000X0.237500X-0.250000X0.237500X0*%
%ADD45RoundRect,0.250000X-0.412500X-1.100000X0.412500X-1.100000X0.412500X1.100000X-0.412500X1.100000X0*%
%ADD46R,1.200000X2.000000*%
%ADD47O,1.200000X2.000000*%
%ADD48R,2.508199X3.252000*%
%ADD49R,12.192000X3.412200*%
%ADD50RoundRect,0.237500X-0.300000X-0.237500X0.300000X-0.237500X0.300000X0.237500X-0.300000X0.237500X0*%
%ADD51RoundRect,0.250000X1.100000X-0.412500X1.100000X0.412500X-1.100000X0.412500X-1.100000X-0.412500X0*%
%ADD52R,0.229400X0.706399*%
%ADD53RoundRect,0.250000X0.750000X-0.750000X0.750000X0.750000X-0.750000X0.750000X-0.750000X-0.750000X0*%
%ADD54C,2.000000*%
%ADD55RoundRect,0.155000X0.155000X-0.212500X0.155000X0.212500X-0.155000X0.212500X-0.155000X-0.212500X0*%
%ADD56RoundRect,0.237500X0.237500X-0.300000X0.237500X0.300000X-0.237500X0.300000X-0.237500X-0.300000X0*%
%ADD57RoundRect,0.160000X0.160000X-0.197500X0.160000X0.197500X-0.160000X0.197500X-0.160000X-0.197500X0*%
%ADD58R,1.699999X0.249999*%
%ADD59FreePoly0,90.000000*%
%ADD60R,2.100001X0.399999*%
%ADD61R,0.249999X1.699999*%
%ADD62FreePoly0,180.000000*%
%ADD63R,0.399999X2.100001*%
%ADD64RoundRect,0.237500X-0.237500X0.300000X-0.237500X-0.300000X0.237500X-0.300000X0.237500X0.300000X0*%
%ADD65R,3.412200X12.192000*%
%ADD66C,6.000000*%
G04 APERTURE END LIST*
D10*
D11*
X177002200Y-166007200D02*
X285002200Y-166007200D01*
X285002200Y-198007200D01*
X177002200Y-198007200D01*
X177002200Y-166007200D01*
D10*
D11*
X10000000Y-10000000D02*
X287002200Y-10000000D01*
X287002200Y-200007200D01*
X10000000Y-200007200D01*
X10000000Y-10000000D01*
D10*
D11*
X12000000Y-12000000D02*
X285002200Y-12000000D01*
X285002200Y-198007200D01*
X12000000Y-198007200D01*
X12000000Y-12000000D01*
D10*
D11*
X60000000Y-12000000D02*
X60000000Y-10000000D01*
D10*
D11*
X110000000Y-12000000D02*
X110000000Y-10000000D01*
D10*
D11*
X160000000Y-12000000D02*
X160000000Y-10000000D01*
D10*
D11*
X210000000Y-12000000D02*
X210000000Y-10000000D01*
D10*
D11*
X260000000Y-12000000D02*
X260000000Y-10000000D01*
D10*
D11*
X36089160Y-11593604D02*
X35346303Y-11593604D01*
X35717731Y-11593604D02*
X35717731Y-10293604D01*
X35717731Y-10293604D02*
X35593922Y-10479319D01*
X35593922Y-10479319D02*
X35470112Y-10603128D01*
X35470112Y-10603128D02*
X35346303Y-10665033D01*
D10*
D11*
X85346303Y-10417414D02*
X85408207Y-10355509D01*
X85408207Y-10355509D02*
X85532017Y-10293604D01*
X85532017Y-10293604D02*
X85841541Y-10293604D01*
X85841541Y-10293604D02*
X85965350Y-10355509D01*
X85965350Y-10355509D02*
X86027255Y-10417414D01*
X86027255Y-10417414D02*
X86089160Y-10541223D01*
X86089160Y-10541223D02*
X86089160Y-10665033D01*
X86089160Y-10665033D02*
X86027255Y-10850747D01*
X86027255Y-10850747D02*
X85284398Y-11593604D01*
X85284398Y-11593604D02*
X86089160Y-11593604D01*
D10*
D11*
X135284398Y-10293604D02*
X136089160Y-10293604D01*
X136089160Y-10293604D02*
X135655826Y-10788842D01*
X135655826Y-10788842D02*
X135841541Y-10788842D01*
X135841541Y-10788842D02*
X135965350Y-10850747D01*
X135965350Y-10850747D02*
X136027255Y-10912652D01*
X136027255Y-10912652D02*
X136089160Y-11036461D01*
X136089160Y-11036461D02*
X136089160Y-11345985D01*
X136089160Y-11345985D02*
X136027255Y-11469795D01*
X136027255Y-11469795D02*
X135965350Y-11531700D01*
X135965350Y-11531700D02*
X135841541Y-11593604D01*
X135841541Y-11593604D02*
X135470112Y-11593604D01*
X135470112Y-11593604D02*
X135346303Y-11531700D01*
X135346303Y-11531700D02*
X135284398Y-11469795D01*
D10*
D11*
X185965350Y-10726938D02*
X185965350Y-11593604D01*
X185655826Y-10231700D02*
X185346303Y-11160271D01*
X185346303Y-11160271D02*
X186151064Y-11160271D01*
D10*
D11*
X236027255Y-10293604D02*
X235408207Y-10293604D01*
X235408207Y-10293604D02*
X235346303Y-10912652D01*
X235346303Y-10912652D02*
X235408207Y-10850747D01*
X235408207Y-10850747D02*
X235532017Y-10788842D01*
X235532017Y-10788842D02*
X235841541Y-10788842D01*
X235841541Y-10788842D02*
X235965350Y-10850747D01*
X235965350Y-10850747D02*
X236027255Y-10912652D01*
X236027255Y-10912652D02*
X236089160Y-11036461D01*
X236089160Y-11036461D02*
X236089160Y-11345985D01*
X236089160Y-11345985D02*
X236027255Y-11469795D01*
X236027255Y-11469795D02*
X235965350Y-11531700D01*
X235965350Y-11531700D02*
X235841541Y-11593604D01*
X235841541Y-11593604D02*
X235532017Y-11593604D01*
X235532017Y-11593604D02*
X235408207Y-11531700D01*
X235408207Y-11531700D02*
X235346303Y-11469795D01*
D10*
D11*
X285965350Y-10293604D02*
X285717731Y-10293604D01*
X285717731Y-10293604D02*
X285593922Y-10355509D01*
X285593922Y-10355509D02*
X285532017Y-10417414D01*
X285532017Y-10417414D02*
X285408207Y-10603128D01*
X285408207Y-10603128D02*
X285346303Y-10850747D01*
X285346303Y-10850747D02*
X285346303Y-11345985D01*
X285346303Y-11345985D02*
X285408207Y-11469795D01*
X285408207Y-11469795D02*
X285470112Y-11531700D01*
X285470112Y-11531700D02*
X285593922Y-11593604D01*
X285593922Y-11593604D02*
X285841541Y-11593604D01*
X285841541Y-11593604D02*
X285965350Y-11531700D01*
X285965350Y-11531700D02*
X286027255Y-11469795D01*
X286027255Y-11469795D02*
X286089160Y-11345985D01*
X286089160Y-11345985D02*
X286089160Y-11036461D01*
X286089160Y-11036461D02*
X286027255Y-10912652D01*
X286027255Y-10912652D02*
X285965350Y-10850747D01*
X285965350Y-10850747D02*
X285841541Y-10788842D01*
X285841541Y-10788842D02*
X285593922Y-10788842D01*
X285593922Y-10788842D02*
X285470112Y-10850747D01*
X285470112Y-10850747D02*
X285408207Y-10912652D01*
X285408207Y-10912652D02*
X285346303Y-11036461D01*
D10*
D11*
X60000000Y-198007200D02*
X60000000Y-200007200D01*
D10*
D11*
X110000000Y-198007200D02*
X110000000Y-200007200D01*
D10*
D11*
X160000000Y-198007200D02*
X160000000Y-200007200D01*
D10*
D11*
X210000000Y-198007200D02*
X210000000Y-200007200D01*
D10*
D11*
X260000000Y-198007200D02*
X260000000Y-200007200D01*
D10*
D11*
X36089160Y-199600804D02*
X35346303Y-199600804D01*
X35717731Y-199600804D02*
X35717731Y-198300804D01*
X35717731Y-198300804D02*
X35593922Y-198486519D01*
X35593922Y-198486519D02*
X35470112Y-198610328D01*
X35470112Y-198610328D02*
X35346303Y-198672233D01*
D10*
D11*
X85346303Y-198424614D02*
X85408207Y-198362709D01*
X85408207Y-198362709D02*
X85532017Y-198300804D01*
X85532017Y-198300804D02*
X85841541Y-198300804D01*
X85841541Y-198300804D02*
X85965350Y-198362709D01*
X85965350Y-198362709D02*
X86027255Y-198424614D01*
X86027255Y-198424614D02*
X86089160Y-198548423D01*
X86089160Y-198548423D02*
X86089160Y-198672233D01*
X86089160Y-198672233D02*
X86027255Y-198857947D01*
X86027255Y-198857947D02*
X85284398Y-199600804D01*
X85284398Y-199600804D02*
X86089160Y-199600804D01*
D10*
D11*
X135284398Y-198300804D02*
X136089160Y-198300804D01*
X136089160Y-198300804D02*
X135655826Y-198796042D01*
X135655826Y-198796042D02*
X135841541Y-198796042D01*
X135841541Y-198796042D02*
X135965350Y-198857947D01*
X135965350Y-198857947D02*
X136027255Y-198919852D01*
X136027255Y-198919852D02*
X136089160Y-199043661D01*
X136089160Y-199043661D02*
X136089160Y-199353185D01*
X136089160Y-199353185D02*
X136027255Y-199476995D01*
X136027255Y-199476995D02*
X135965350Y-199538900D01*
X135965350Y-199538900D02*
X135841541Y-199600804D01*
X135841541Y-199600804D02*
X135470112Y-199600804D01*
X135470112Y-199600804D02*
X135346303Y-199538900D01*
X135346303Y-199538900D02*
X135284398Y-199476995D01*
D10*
D11*
X185965350Y-198734138D02*
X185965350Y-199600804D01*
X185655826Y-198238900D02*
X185346303Y-199167471D01*
X185346303Y-199167471D02*
X186151064Y-199167471D01*
D10*
D11*
X236027255Y-198300804D02*
X235408207Y-198300804D01*
X235408207Y-198300804D02*
X235346303Y-198919852D01*
X235346303Y-198919852D02*
X235408207Y-198857947D01*
X235408207Y-198857947D02*
X235532017Y-198796042D01*
X235532017Y-198796042D02*
X235841541Y-198796042D01*
X235841541Y-198796042D02*
X235965350Y-198857947D01*
X235965350Y-198857947D02*
X236027255Y-198919852D01*
X236027255Y-198919852D02*
X236089160Y-199043661D01*
X236089160Y-199043661D02*
X236089160Y-199353185D01*
X236089160Y-199353185D02*
X236027255Y-199476995D01*
X236027255Y-199476995D02*
X235965350Y-199538900D01*
X235965350Y-199538900D02*
X235841541Y-199600804D01*
X235841541Y-199600804D02*
X235532017Y-199600804D01*
X235532017Y-199600804D02*
X235408207Y-199538900D01*
X235408207Y-199538900D02*
X235346303Y-199476995D01*
D10*
D11*
X285965350Y-198300804D02*
X285717731Y-198300804D01*
X285717731Y-198300804D02*
X285593922Y-198362709D01*
X285593922Y-198362709D02*
X285532017Y-198424614D01*
X285532017Y-198424614D02*
X285408207Y-198610328D01*
X285408207Y-198610328D02*
X285346303Y-198857947D01*
X285346303Y-198857947D02*
X285346303Y-199353185D01*
X285346303Y-199353185D02*
X285408207Y-199476995D01*
X285408207Y-199476995D02*
X285470112Y-199538900D01*
X285470112Y-199538900D02*
X285593922Y-199600804D01*
X285593922Y-199600804D02*
X285841541Y-199600804D01*
X285841541Y-199600804D02*
X285965350Y-199538900D01*
X285965350Y-199538900D02*
X286027255Y-199476995D01*
X286027255Y-199476995D02*
X286089160Y-199353185D01*
X286089160Y-199353185D02*
X286089160Y-199043661D01*
X286089160Y-199043661D02*
X286027255Y-198919852D01*
X286027255Y-198919852D02*
X285965350Y-198857947D01*
X285965350Y-198857947D02*
X285841541Y-198796042D01*
X285841541Y-198796042D02*
X285593922Y-198796042D01*
X285593922Y-198796042D02*
X285470112Y-198857947D01*
X285470112Y-198857947D02*
X285408207Y-198919852D01*
X285408207Y-198919852D02*
X285346303Y-199043661D01*
D10*
D11*
X10000000Y-60000000D02*
X12000000Y-60000000D01*
D10*
D11*
X10000000Y-110000000D02*
X12000000Y-110000000D01*
D10*
D11*
X10000000Y-160000000D02*
X12000000Y-160000000D01*
D10*
D11*
X10690476Y-35222176D02*
X11309523Y-35222176D01*
X10566666Y-35593604D02*
X10999999Y-34293604D01*
X10999999Y-34293604D02*
X11433333Y-35593604D01*
D10*
D11*
X11092857Y-84912652D02*
X11278571Y-84974557D01*
X11278571Y-84974557D02*
X11340476Y-85036461D01*
X11340476Y-85036461D02*
X11402380Y-85160271D01*
X11402380Y-85160271D02*
X11402380Y-85345985D01*
X11402380Y-85345985D02*
X11340476Y-85469795D01*
X11340476Y-85469795D02*
X11278571Y-85531700D01*
X11278571Y-85531700D02*
X11154761Y-85593604D01*
X11154761Y-85593604D02*
X10659523Y-85593604D01*
X10659523Y-85593604D02*
X10659523Y-84293604D01*
X10659523Y-84293604D02*
X11092857Y-84293604D01*
X11092857Y-84293604D02*
X11216666Y-84355509D01*
X11216666Y-84355509D02*
X11278571Y-84417414D01*
X11278571Y-84417414D02*
X11340476Y-84541223D01*
X11340476Y-84541223D02*
X11340476Y-84665033D01*
X11340476Y-84665033D02*
X11278571Y-84788842D01*
X11278571Y-84788842D02*
X11216666Y-84850747D01*
X11216666Y-84850747D02*
X11092857Y-84912652D01*
X11092857Y-84912652D02*
X10659523Y-84912652D01*
D10*
D11*
X11402380Y-135469795D02*
X11340476Y-135531700D01*
X11340476Y-135531700D02*
X11154761Y-135593604D01*
X11154761Y-135593604D02*
X11030952Y-135593604D01*
X11030952Y-135593604D02*
X10845238Y-135531700D01*
X10845238Y-135531700D02*
X10721428Y-135407890D01*
X10721428Y-135407890D02*
X10659523Y-135284080D01*
X10659523Y-135284080D02*
X10597619Y-135036461D01*
X10597619Y-135036461D02*
X10597619Y-134850747D01*
X10597619Y-134850747D02*
X10659523Y-134603128D01*
X10659523Y-134603128D02*
X10721428Y-134479319D01*
X10721428Y-134479319D02*
X10845238Y-134355509D01*
X10845238Y-134355509D02*
X11030952Y-134293604D01*
X11030952Y-134293604D02*
X11154761Y-134293604D01*
X11154761Y-134293604D02*
X11340476Y-134355509D01*
X11340476Y-134355509D02*
X11402380Y-134417414D01*
D10*
D11*
X10659523Y-185593604D02*
X10659523Y-184293604D01*
X10659523Y-184293604D02*
X10969047Y-184293604D01*
X10969047Y-184293604D02*
X11154761Y-184355509D01*
X11154761Y-184355509D02*
X11278571Y-184479319D01*
X11278571Y-184479319D02*
X11340476Y-184603128D01*
X11340476Y-184603128D02*
X11402380Y-184850747D01*
X11402380Y-184850747D02*
X11402380Y-185036461D01*
X11402380Y-185036461D02*
X11340476Y-185284080D01*
X11340476Y-185284080D02*
X11278571Y-185407890D01*
X11278571Y-185407890D02*
X11154761Y-185531700D01*
X11154761Y-185531700D02*
X10969047Y-185593604D01*
X10969047Y-185593604D02*
X10659523Y-185593604D01*
D10*
D11*
X287002200Y-60000000D02*
X285002200Y-60000000D01*
D10*
D11*
X287002200Y-110000000D02*
X285002200Y-110000000D01*
D10*
D11*
X287002200Y-160000000D02*
X285002200Y-160000000D01*
D10*
D11*
X285692676Y-35222176D02*
X286311723Y-35222176D01*
X285568866Y-35593604D02*
X286002199Y-34293604D01*
X286002199Y-34293604D02*
X286435533Y-35593604D01*
D10*
D11*
X286095057Y-84912652D02*
X286280771Y-84974557D01*
X286280771Y-84974557D02*
X286342676Y-85036461D01*
X286342676Y-85036461D02*
X286404580Y-85160271D01*
X286404580Y-85160271D02*
X286404580Y-85345985D01*
X286404580Y-85345985D02*
X286342676Y-85469795D01*
X286342676Y-85469795D02*
X286280771Y-85531700D01*
X286280771Y-85531700D02*
X286156961Y-85593604D01*
X286156961Y-85593604D02*
X285661723Y-85593604D01*
X285661723Y-85593604D02*
X285661723Y-84293604D01*
X285661723Y-84293604D02*
X286095057Y-84293604D01*
X286095057Y-84293604D02*
X286218866Y-84355509D01*
X286218866Y-84355509D02*
X286280771Y-84417414D01*
X286280771Y-84417414D02*
X286342676Y-84541223D01*
X286342676Y-84541223D02*
X286342676Y-84665033D01*
X286342676Y-84665033D02*
X286280771Y-84788842D01*
X286280771Y-84788842D02*
X286218866Y-84850747D01*
X286218866Y-84850747D02*
X286095057Y-84912652D01*
X286095057Y-84912652D02*
X285661723Y-84912652D01*
D10*
D11*
X286404580Y-135469795D02*
X286342676Y-135531700D01*
X286342676Y-135531700D02*
X286156961Y-135593604D01*
X286156961Y-135593604D02*
X286033152Y-135593604D01*
X286033152Y-135593604D02*
X285847438Y-135531700D01*
X285847438Y-135531700D02*
X285723628Y-135407890D01*
X285723628Y-135407890D02*
X285661723Y-135284080D01*
X285661723Y-135284080D02*
X285599819Y-135036461D01*
X285599819Y-135036461D02*
X285599819Y-134850747D01*
X285599819Y-134850747D02*
X285661723Y-134603128D01*
X285661723Y-134603128D02*
X285723628Y-134479319D01*
X285723628Y-134479319D02*
X285847438Y-134355509D01*
X285847438Y-134355509D02*
X286033152Y-134293604D01*
X286033152Y-134293604D02*
X286156961Y-134293604D01*
X286156961Y-134293604D02*
X286342676Y-134355509D01*
X286342676Y-134355509D02*
X286404580Y-134417414D01*
D10*
D11*
X285661723Y-185593604D02*
X285661723Y-184293604D01*
X285661723Y-184293604D02*
X285971247Y-184293604D01*
X285971247Y-184293604D02*
X286156961Y-184355509D01*
X286156961Y-184355509D02*
X286280771Y-184479319D01*
X286280771Y-184479319D02*
X286342676Y-184603128D01*
X286342676Y-184603128D02*
X286404580Y-184850747D01*
X286404580Y-184850747D02*
X286404580Y-185036461D01*
X286404580Y-185036461D02*
X286342676Y-185284080D01*
X286342676Y-185284080D02*
X286280771Y-185407890D01*
X286280771Y-185407890D02*
X286156961Y-185531700D01*
X286156961Y-185531700D02*
X285971247Y-185593604D01*
X285971247Y-185593604D02*
X285661723Y-185593604D01*
D10*
D11*
X200458026Y-193793328D02*
X200458026Y-192293328D01*
X200458026Y-192293328D02*
X200815169Y-192293328D01*
X200815169Y-192293328D02*
X201029455Y-192364757D01*
X201029455Y-192364757D02*
X201172312Y-192507614D01*
X201172312Y-192507614D02*
X201243741Y-192650471D01*
X201243741Y-192650471D02*
X201315169Y-192936185D01*
X201315169Y-192936185D02*
X201315169Y-193150471D01*
X201315169Y-193150471D02*
X201243741Y-193436185D01*
X201243741Y-193436185D02*
X201172312Y-193579042D01*
X201172312Y-193579042D02*
X201029455Y-193721900D01*
X201029455Y-193721900D02*
X200815169Y-193793328D01*
X200815169Y-193793328D02*
X200458026Y-193793328D01*
X202600884Y-193793328D02*
X202600884Y-193007614D01*
X202600884Y-193007614D02*
X202529455Y-192864757D01*
X202529455Y-192864757D02*
X202386598Y-192793328D01*
X202386598Y-192793328D02*
X202100884Y-192793328D01*
X202100884Y-192793328D02*
X201958026Y-192864757D01*
X202600884Y-193721900D02*
X202458026Y-193793328D01*
X202458026Y-193793328D02*
X202100884Y-193793328D01*
X202100884Y-193793328D02*
X201958026Y-193721900D01*
X201958026Y-193721900D02*
X201886598Y-193579042D01*
X201886598Y-193579042D02*
X201886598Y-193436185D01*
X201886598Y-193436185D02*
X201958026Y-193293328D01*
X201958026Y-193293328D02*
X202100884Y-193221900D01*
X202100884Y-193221900D02*
X202458026Y-193221900D01*
X202458026Y-193221900D02*
X202600884Y-193150471D01*
X203100884Y-192793328D02*
X203672312Y-192793328D01*
X203315169Y-192293328D02*
X203315169Y-193579042D01*
X203315169Y-193579042D02*
X203386598Y-193721900D01*
X203386598Y-193721900D02*
X203529455Y-193793328D01*
X203529455Y-193793328D02*
X203672312Y-193793328D01*
X204743741Y-193721900D02*
X204600884Y-193793328D01*
X204600884Y-193793328D02*
X204315170Y-193793328D01*
X204315170Y-193793328D02*
X204172312Y-193721900D01*
X204172312Y-193721900D02*
X204100884Y-193579042D01*
X204100884Y-193579042D02*
X204100884Y-193007614D01*
X204100884Y-193007614D02*
X204172312Y-192864757D01*
X204172312Y-192864757D02*
X204315170Y-192793328D01*
X204315170Y-192793328D02*
X204600884Y-192793328D01*
X204600884Y-192793328D02*
X204743741Y-192864757D01*
X204743741Y-192864757D02*
X204815170Y-193007614D01*
X204815170Y-193007614D02*
X204815170Y-193150471D01*
X204815170Y-193150471D02*
X204100884Y-193293328D01*
X205458026Y-193650471D02*
X205529455Y-193721900D01*
X205529455Y-193721900D02*
X205458026Y-193793328D01*
X205458026Y-193793328D02*
X205386598Y-193721900D01*
X205386598Y-193721900D02*
X205458026Y-193650471D01*
X205458026Y-193650471D02*
X205458026Y-193793328D01*
X205458026Y-192864757D02*
X205529455Y-192936185D01*
X205529455Y-192936185D02*
X205458026Y-193007614D01*
X205458026Y-193007614D02*
X205386598Y-192936185D01*
X205386598Y-192936185D02*
X205458026Y-192864757D01*
X205458026Y-192864757D02*
X205458026Y-193007614D01*
D10*
D11*
X177002200Y-194507200D02*
X285002200Y-194507200D01*
D10*
D11*
X178458026Y-196593328D02*
X178458026Y-195093328D01*
X179315169Y-196593328D02*
X178672312Y-195736185D01*
X179315169Y-195093328D02*
X178458026Y-195950471D01*
X179958026Y-196593328D02*
X179958026Y-195593328D01*
X179958026Y-195093328D02*
X179886598Y-195164757D01*
X179886598Y-195164757D02*
X179958026Y-195236185D01*
X179958026Y-195236185D02*
X180029455Y-195164757D01*
X180029455Y-195164757D02*
X179958026Y-195093328D01*
X179958026Y-195093328D02*
X179958026Y-195236185D01*
X181529455Y-196450471D02*
X181458027Y-196521900D01*
X181458027Y-196521900D02*
X181243741Y-196593328D01*
X181243741Y-196593328D02*
X181100884Y-196593328D01*
X181100884Y-196593328D02*
X180886598Y-196521900D01*
X180886598Y-196521900D02*
X180743741Y-196379042D01*
X180743741Y-196379042D02*
X180672312Y-196236185D01*
X180672312Y-196236185D02*
X180600884Y-195950471D01*
X180600884Y-195950471D02*
X180600884Y-195736185D01*
X180600884Y-195736185D02*
X180672312Y-195450471D01*
X180672312Y-195450471D02*
X180743741Y-195307614D01*
X180743741Y-195307614D02*
X180886598Y-195164757D01*
X180886598Y-195164757D02*
X181100884Y-195093328D01*
X181100884Y-195093328D02*
X181243741Y-195093328D01*
X181243741Y-195093328D02*
X181458027Y-195164757D01*
X181458027Y-195164757D02*
X181529455Y-195236185D01*
X182815170Y-196593328D02*
X182815170Y-195807614D01*
X182815170Y-195807614D02*
X182743741Y-195664757D01*
X182743741Y-195664757D02*
X182600884Y-195593328D01*
X182600884Y-195593328D02*
X182315170Y-195593328D01*
X182315170Y-195593328D02*
X182172312Y-195664757D01*
X182815170Y-196521900D02*
X182672312Y-196593328D01*
X182672312Y-196593328D02*
X182315170Y-196593328D01*
X182315170Y-196593328D02*
X182172312Y-196521900D01*
X182172312Y-196521900D02*
X182100884Y-196379042D01*
X182100884Y-196379042D02*
X182100884Y-196236185D01*
X182100884Y-196236185D02*
X182172312Y-196093328D01*
X182172312Y-196093328D02*
X182315170Y-196021900D01*
X182315170Y-196021900D02*
X182672312Y-196021900D01*
X182672312Y-196021900D02*
X182815170Y-195950471D01*
X184172313Y-196593328D02*
X184172313Y-195093328D01*
X184172313Y-196521900D02*
X184029455Y-196593328D01*
X184029455Y-196593328D02*
X183743741Y-196593328D01*
X183743741Y-196593328D02*
X183600884Y-196521900D01*
X183600884Y-196521900D02*
X183529455Y-196450471D01*
X183529455Y-196450471D02*
X183458027Y-196307614D01*
X183458027Y-196307614D02*
X183458027Y-195879042D01*
X183458027Y-195879042D02*
X183529455Y-195736185D01*
X183529455Y-195736185D02*
X183600884Y-195664757D01*
X183600884Y-195664757D02*
X183743741Y-195593328D01*
X183743741Y-195593328D02*
X184029455Y-195593328D01*
X184029455Y-195593328D02*
X184172313Y-195664757D01*
X186029455Y-195807614D02*
X186529455Y-195807614D01*
X186743741Y-196593328D02*
X186029455Y-196593328D01*
X186029455Y-196593328D02*
X186029455Y-195093328D01*
X186029455Y-195093328D02*
X186743741Y-195093328D01*
X187386598Y-196450471D02*
X187458027Y-196521900D01*
X187458027Y-196521900D02*
X187386598Y-196593328D01*
X187386598Y-196593328D02*
X187315170Y-196521900D01*
X187315170Y-196521900D02*
X187386598Y-196450471D01*
X187386598Y-196450471D02*
X187386598Y-196593328D01*
X188100884Y-196593328D02*
X188100884Y-195093328D01*
X188100884Y-195093328D02*
X188458027Y-195093328D01*
X188458027Y-195093328D02*
X188672313Y-195164757D01*
X188672313Y-195164757D02*
X188815170Y-195307614D01*
X188815170Y-195307614D02*
X188886599Y-195450471D01*
X188886599Y-195450471D02*
X188958027Y-195736185D01*
X188958027Y-195736185D02*
X188958027Y-195950471D01*
X188958027Y-195950471D02*
X188886599Y-196236185D01*
X188886599Y-196236185D02*
X188815170Y-196379042D01*
X188815170Y-196379042D02*
X188672313Y-196521900D01*
X188672313Y-196521900D02*
X188458027Y-196593328D01*
X188458027Y-196593328D02*
X188100884Y-196593328D01*
X189600884Y-196450471D02*
X189672313Y-196521900D01*
X189672313Y-196521900D02*
X189600884Y-196593328D01*
X189600884Y-196593328D02*
X189529456Y-196521900D01*
X189529456Y-196521900D02*
X189600884Y-196450471D01*
X189600884Y-196450471D02*
X189600884Y-196593328D01*
X190243742Y-196164757D02*
X190958028Y-196164757D01*
X190100885Y-196593328D02*
X190600885Y-195093328D01*
X190600885Y-195093328D02*
X191100885Y-196593328D01*
X191600884Y-196450471D02*
X191672313Y-196521900D01*
X191672313Y-196521900D02*
X191600884Y-196593328D01*
X191600884Y-196593328D02*
X191529456Y-196521900D01*
X191529456Y-196521900D02*
X191600884Y-196450471D01*
X191600884Y-196450471D02*
X191600884Y-196593328D01*
X193529456Y-196593328D02*
X193815170Y-196593328D01*
X193815170Y-196593328D02*
X193958027Y-196521900D01*
X193958027Y-196521900D02*
X194029456Y-196450471D01*
X194029456Y-196450471D02*
X194172313Y-196236185D01*
X194172313Y-196236185D02*
X194243742Y-195950471D01*
X194243742Y-195950471D02*
X194243742Y-195379042D01*
X194243742Y-195379042D02*
X194172313Y-195236185D01*
X194172313Y-195236185D02*
X194100885Y-195164757D01*
X194100885Y-195164757D02*
X193958027Y-195093328D01*
X193958027Y-195093328D02*
X193672313Y-195093328D01*
X193672313Y-195093328D02*
X193529456Y-195164757D01*
X193529456Y-195164757D02*
X193458027Y-195236185D01*
X193458027Y-195236185D02*
X193386599Y-195379042D01*
X193386599Y-195379042D02*
X193386599Y-195736185D01*
X193386599Y-195736185D02*
X193458027Y-195879042D01*
X193458027Y-195879042D02*
X193529456Y-195950471D01*
X193529456Y-195950471D02*
X193672313Y-196021900D01*
X193672313Y-196021900D02*
X193958027Y-196021900D01*
X193958027Y-196021900D02*
X194100885Y-195950471D01*
X194100885Y-195950471D02*
X194172313Y-195879042D01*
X194172313Y-195879042D02*
X194243742Y-195736185D01*
X194886598Y-196450471D02*
X194958027Y-196521900D01*
X194958027Y-196521900D02*
X194886598Y-196593328D01*
X194886598Y-196593328D02*
X194815170Y-196521900D01*
X194815170Y-196521900D02*
X194886598Y-196450471D01*
X194886598Y-196450471D02*
X194886598Y-196593328D01*
X195886599Y-195093328D02*
X196029456Y-195093328D01*
X196029456Y-195093328D02*
X196172313Y-195164757D01*
X196172313Y-195164757D02*
X196243742Y-195236185D01*
X196243742Y-195236185D02*
X196315170Y-195379042D01*
X196315170Y-195379042D02*
X196386599Y-195664757D01*
X196386599Y-195664757D02*
X196386599Y-196021900D01*
X196386599Y-196021900D02*
X196315170Y-196307614D01*
X196315170Y-196307614D02*
X196243742Y-196450471D01*
X196243742Y-196450471D02*
X196172313Y-196521900D01*
X196172313Y-196521900D02*
X196029456Y-196593328D01*
X196029456Y-196593328D02*
X195886599Y-196593328D01*
X195886599Y-196593328D02*
X195743742Y-196521900D01*
X195743742Y-196521900D02*
X195672313Y-196450471D01*
X195672313Y-196450471D02*
X195600884Y-196307614D01*
X195600884Y-196307614D02*
X195529456Y-196021900D01*
X195529456Y-196021900D02*
X195529456Y-195664757D01*
X195529456Y-195664757D02*
X195600884Y-195379042D01*
X195600884Y-195379042D02*
X195672313Y-195236185D01*
X195672313Y-195236185D02*
X195743742Y-195164757D01*
X195743742Y-195164757D02*
X195886599Y-195093328D01*
X197029455Y-196450471D02*
X197100884Y-196521900D01*
X197100884Y-196521900D02*
X197029455Y-196593328D01*
X197029455Y-196593328D02*
X196958027Y-196521900D01*
X196958027Y-196521900D02*
X197029455Y-196450471D01*
X197029455Y-196450471D02*
X197029455Y-196593328D01*
X197600884Y-195093328D02*
X198600884Y-195093328D01*
X198600884Y-195093328D02*
X197958027Y-196593328D01*
D10*
D11*
X177002200Y-191507200D02*
X285002200Y-191507200D01*
D10*
D12*
X264413853Y-193785528D02*
X263913853Y-193071242D01*
X263556710Y-193785528D02*
X263556710Y-192285528D01*
X263556710Y-192285528D02*
X264128139Y-192285528D01*
X264128139Y-192285528D02*
X264270996Y-192356957D01*
X264270996Y-192356957D02*
X264342425Y-192428385D01*
X264342425Y-192428385D02*
X264413853Y-192571242D01*
X264413853Y-192571242D02*
X264413853Y-192785528D01*
X264413853Y-192785528D02*
X264342425Y-192928385D01*
X264342425Y-192928385D02*
X264270996Y-192999814D01*
X264270996Y-192999814D02*
X264128139Y-193071242D01*
X264128139Y-193071242D02*
X263556710Y-193071242D01*
X265628139Y-193714100D02*
X265485282Y-193785528D01*
X265485282Y-193785528D02*
X265199568Y-193785528D01*
X265199568Y-193785528D02*
X265056710Y-193714100D01*
X265056710Y-193714100D02*
X264985282Y-193571242D01*
X264985282Y-193571242D02*
X264985282Y-192999814D01*
X264985282Y-192999814D02*
X265056710Y-192856957D01*
X265056710Y-192856957D02*
X265199568Y-192785528D01*
X265199568Y-192785528D02*
X265485282Y-192785528D01*
X265485282Y-192785528D02*
X265628139Y-192856957D01*
X265628139Y-192856957D02*
X265699568Y-192999814D01*
X265699568Y-192999814D02*
X265699568Y-193142671D01*
X265699568Y-193142671D02*
X264985282Y-193285528D01*
X266199567Y-192785528D02*
X266556710Y-193785528D01*
X266556710Y-193785528D02*
X266913853Y-192785528D01*
X267485281Y-193642671D02*
X267556710Y-193714100D01*
X267556710Y-193714100D02*
X267485281Y-193785528D01*
X267485281Y-193785528D02*
X267413853Y-193714100D01*
X267413853Y-193714100D02*
X267485281Y-193642671D01*
X267485281Y-193642671D02*
X267485281Y-193785528D01*
X267485281Y-192856957D02*
X267556710Y-192928385D01*
X267556710Y-192928385D02*
X267485281Y-192999814D01*
X267485281Y-192999814D02*
X267413853Y-192928385D01*
X267413853Y-192928385D02*
X267485281Y-192856957D01*
X267485281Y-192856957D02*
X267485281Y-192999814D01*
D10*
D11*
X178386598Y-193721900D02*
X178600884Y-193793328D01*
X178600884Y-193793328D02*
X178958026Y-193793328D01*
X178958026Y-193793328D02*
X179100884Y-193721900D01*
X179100884Y-193721900D02*
X179172312Y-193650471D01*
X179172312Y-193650471D02*
X179243741Y-193507614D01*
X179243741Y-193507614D02*
X179243741Y-193364757D01*
X179243741Y-193364757D02*
X179172312Y-193221900D01*
X179172312Y-193221900D02*
X179100884Y-193150471D01*
X179100884Y-193150471D02*
X178958026Y-193079042D01*
X178958026Y-193079042D02*
X178672312Y-193007614D01*
X178672312Y-193007614D02*
X178529455Y-192936185D01*
X178529455Y-192936185D02*
X178458026Y-192864757D01*
X178458026Y-192864757D02*
X178386598Y-192721900D01*
X178386598Y-192721900D02*
X178386598Y-192579042D01*
X178386598Y-192579042D02*
X178458026Y-192436185D01*
X178458026Y-192436185D02*
X178529455Y-192364757D01*
X178529455Y-192364757D02*
X178672312Y-192293328D01*
X178672312Y-192293328D02*
X179029455Y-192293328D01*
X179029455Y-192293328D02*
X179243741Y-192364757D01*
X179886597Y-193793328D02*
X179886597Y-192793328D01*
X179886597Y-192293328D02*
X179815169Y-192364757D01*
X179815169Y-192364757D02*
X179886597Y-192436185D01*
X179886597Y-192436185D02*
X179958026Y-192364757D01*
X179958026Y-192364757D02*
X179886597Y-192293328D01*
X179886597Y-192293328D02*
X179886597Y-192436185D01*
X180458026Y-192793328D02*
X181243741Y-192793328D01*
X181243741Y-192793328D02*
X180458026Y-193793328D01*
X180458026Y-193793328D02*
X181243741Y-193793328D01*
X182386598Y-193721900D02*
X182243741Y-193793328D01*
X182243741Y-193793328D02*
X181958027Y-193793328D01*
X181958027Y-193793328D02*
X181815169Y-193721900D01*
X181815169Y-193721900D02*
X181743741Y-193579042D01*
X181743741Y-193579042D02*
X181743741Y-193007614D01*
X181743741Y-193007614D02*
X181815169Y-192864757D01*
X181815169Y-192864757D02*
X181958027Y-192793328D01*
X181958027Y-192793328D02*
X182243741Y-192793328D01*
X182243741Y-192793328D02*
X182386598Y-192864757D01*
X182386598Y-192864757D02*
X182458027Y-193007614D01*
X182458027Y-193007614D02*
X182458027Y-193150471D01*
X182458027Y-193150471D02*
X181743741Y-193293328D01*
X183100883Y-193650471D02*
X183172312Y-193721900D01*
X183172312Y-193721900D02*
X183100883Y-193793328D01*
X183100883Y-193793328D02*
X183029455Y-193721900D01*
X183029455Y-193721900D02*
X183100883Y-193650471D01*
X183100883Y-193650471D02*
X183100883Y-193793328D01*
X183100883Y-192864757D02*
X183172312Y-192936185D01*
X183172312Y-192936185D02*
X183100883Y-193007614D01*
X183100883Y-193007614D02*
X183029455Y-192936185D01*
X183029455Y-192936185D02*
X183100883Y-192864757D01*
X183100883Y-192864757D02*
X183100883Y-193007614D01*
X184886598Y-193364757D02*
X185600884Y-193364757D01*
X184743741Y-193793328D02*
X185243741Y-192293328D01*
X185243741Y-192293328D02*
X185743741Y-193793328D01*
X186886598Y-192793328D02*
X186886598Y-193793328D01*
X186529455Y-192221900D02*
X186172312Y-193293328D01*
X186172312Y-193293328D02*
X187100883Y-193293328D01*
D10*
D11*
X263458026Y-196593328D02*
X263458026Y-195093328D01*
X264815170Y-196593328D02*
X264815170Y-195093328D01*
X264815170Y-196521900D02*
X264672312Y-196593328D01*
X264672312Y-196593328D02*
X264386598Y-196593328D01*
X264386598Y-196593328D02*
X264243741Y-196521900D01*
X264243741Y-196521900D02*
X264172312Y-196450471D01*
X264172312Y-196450471D02*
X264100884Y-196307614D01*
X264100884Y-196307614D02*
X264100884Y-195879042D01*
X264100884Y-195879042D02*
X264172312Y-195736185D01*
X264172312Y-195736185D02*
X264243741Y-195664757D01*
X264243741Y-195664757D02*
X264386598Y-195593328D01*
X264386598Y-195593328D02*
X264672312Y-195593328D01*
X264672312Y-195593328D02*
X264815170Y-195664757D01*
X265529455Y-196450471D02*
X265600884Y-196521900D01*
X265600884Y-196521900D02*
X265529455Y-196593328D01*
X265529455Y-196593328D02*
X265458027Y-196521900D01*
X265458027Y-196521900D02*
X265529455Y-196450471D01*
X265529455Y-196450471D02*
X265529455Y-196593328D01*
X265529455Y-195664757D02*
X265600884Y-195736185D01*
X265600884Y-195736185D02*
X265529455Y-195807614D01*
X265529455Y-195807614D02*
X265458027Y-195736185D01*
X265458027Y-195736185D02*
X265529455Y-195664757D01*
X265529455Y-195664757D02*
X265529455Y-195807614D01*
X268172313Y-196593328D02*
X267315170Y-196593328D01*
X267743741Y-196593328D02*
X267743741Y-195093328D01*
X267743741Y-195093328D02*
X267600884Y-195307614D01*
X267600884Y-195307614D02*
X267458027Y-195450471D01*
X267458027Y-195450471D02*
X267315170Y-195521900D01*
X268672312Y-195093328D02*
X269600884Y-195093328D01*
X269600884Y-195093328D02*
X269100884Y-195664757D01*
X269100884Y-195664757D02*
X269315169Y-195664757D01*
X269315169Y-195664757D02*
X269458027Y-195736185D01*
X269458027Y-195736185D02*
X269529455Y-195807614D01*
X269529455Y-195807614D02*
X269600884Y-195950471D01*
X269600884Y-195950471D02*
X269600884Y-196307614D01*
X269600884Y-196307614D02*
X269529455Y-196450471D01*
X269529455Y-196450471D02*
X269458027Y-196521900D01*
X269458027Y-196521900D02*
X269315169Y-196593328D01*
X269315169Y-196593328D02*
X268886598Y-196593328D01*
X268886598Y-196593328D02*
X268743741Y-196521900D01*
X268743741Y-196521900D02*
X268672312Y-196450471D01*
X271315169Y-195021900D02*
X270029455Y-196950471D01*
X272600884Y-196593328D02*
X271743741Y-196593328D01*
X272172312Y-196593328D02*
X272172312Y-195093328D01*
X272172312Y-195093328D02*
X272029455Y-195307614D01*
X272029455Y-195307614D02*
X271886598Y-195450471D01*
X271886598Y-195450471D02*
X271743741Y-195521900D01*
X273958026Y-195093328D02*
X273243740Y-195093328D01*
X273243740Y-195093328D02*
X273172312Y-195807614D01*
X273172312Y-195807614D02*
X273243740Y-195736185D01*
X273243740Y-195736185D02*
X273386598Y-195664757D01*
X273386598Y-195664757D02*
X273743740Y-195664757D01*
X273743740Y-195664757D02*
X273886598Y-195736185D01*
X273886598Y-195736185D02*
X273958026Y-195807614D01*
X273958026Y-195807614D02*
X274029455Y-195950471D01*
X274029455Y-195950471D02*
X274029455Y-196307614D01*
X274029455Y-196307614D02*
X273958026Y-196450471D01*
X273958026Y-196450471D02*
X273886598Y-196521900D01*
X273886598Y-196521900D02*
X273743740Y-196593328D01*
X273743740Y-196593328D02*
X273386598Y-196593328D01*
X273386598Y-196593328D02*
X273243740Y-196521900D01*
X273243740Y-196521900D02*
X273172312Y-196450471D01*
D10*
D11*
X177002200Y-187507200D02*
X285002200Y-187507200D01*
D10*
D13*
X178693928Y-188211638D02*
X179836785Y-188211638D01*
X179015357Y-190211638D02*
X179265357Y-188211638D01*
X180253452Y-190211638D02*
X180420119Y-188878304D01*
X180503452Y-188211638D02*
X180396309Y-188306876D01*
X180396309Y-188306876D02*
X180479643Y-188402114D01*
X180479643Y-188402114D02*
X180586786Y-188306876D01*
X180586786Y-188306876D02*
X180503452Y-188211638D01*
X180503452Y-188211638D02*
X180479643Y-188402114D01*
X181086786Y-188878304D02*
X181848690Y-188878304D01*
X181455833Y-188211638D02*
X181241548Y-189925923D01*
X181241548Y-189925923D02*
X181312976Y-190116400D01*
X181312976Y-190116400D02*
X181491548Y-190211638D01*
X181491548Y-190211638D02*
X181682024Y-190211638D01*
X182634405Y-190211638D02*
X182455833Y-190116400D01*
X182455833Y-190116400D02*
X182384405Y-189925923D01*
X182384405Y-189925923D02*
X182598690Y-188211638D01*
X184170119Y-190116400D02*
X183967738Y-190211638D01*
X183967738Y-190211638D02*
X183586785Y-190211638D01*
X183586785Y-190211638D02*
X183408214Y-190116400D01*
X183408214Y-190116400D02*
X183336785Y-189925923D01*
X183336785Y-189925923D02*
X183432024Y-189164019D01*
X183432024Y-189164019D02*
X183551071Y-188973542D01*
X183551071Y-188973542D02*
X183753452Y-188878304D01*
X183753452Y-188878304D02*
X184134404Y-188878304D01*
X184134404Y-188878304D02*
X184312976Y-188973542D01*
X184312976Y-188973542D02*
X184384404Y-189164019D01*
X184384404Y-189164019D02*
X184360595Y-189354495D01*
X184360595Y-189354495D02*
X183384404Y-189544971D01*
X185134405Y-190021161D02*
X185217738Y-190116400D01*
X185217738Y-190116400D02*
X185110595Y-190211638D01*
X185110595Y-190211638D02*
X185027262Y-190116400D01*
X185027262Y-190116400D02*
X185134405Y-190021161D01*
X185134405Y-190021161D02*
X185110595Y-190211638D01*
X185265357Y-188973542D02*
X185348690Y-189068780D01*
X185348690Y-189068780D02*
X185241548Y-189164019D01*
X185241548Y-189164019D02*
X185158214Y-189068780D01*
X185158214Y-189068780D02*
X185265357Y-188973542D01*
X185265357Y-188973542D02*
X185241548Y-189164019D01*
D10*
D11*
X178958026Y-185607614D02*
X178458026Y-185607614D01*
X178458026Y-186393328D02*
X178458026Y-184893328D01*
X178458026Y-184893328D02*
X179172312Y-184893328D01*
X179743740Y-186393328D02*
X179743740Y-185393328D01*
X179743740Y-184893328D02*
X179672312Y-184964757D01*
X179672312Y-184964757D02*
X179743740Y-185036185D01*
X179743740Y-185036185D02*
X179815169Y-184964757D01*
X179815169Y-184964757D02*
X179743740Y-184893328D01*
X179743740Y-184893328D02*
X179743740Y-185036185D01*
X180672312Y-186393328D02*
X180529455Y-186321900D01*
X180529455Y-186321900D02*
X180458026Y-186179042D01*
X180458026Y-186179042D02*
X180458026Y-184893328D01*
X181815169Y-186321900D02*
X181672312Y-186393328D01*
X181672312Y-186393328D02*
X181386598Y-186393328D01*
X181386598Y-186393328D02*
X181243740Y-186321900D01*
X181243740Y-186321900D02*
X181172312Y-186179042D01*
X181172312Y-186179042D02*
X181172312Y-185607614D01*
X181172312Y-185607614D02*
X181243740Y-185464757D01*
X181243740Y-185464757D02*
X181386598Y-185393328D01*
X181386598Y-185393328D02*
X181672312Y-185393328D01*
X181672312Y-185393328D02*
X181815169Y-185464757D01*
X181815169Y-185464757D02*
X181886598Y-185607614D01*
X181886598Y-185607614D02*
X181886598Y-185750471D01*
X181886598Y-185750471D02*
X181172312Y-185893328D01*
X182529454Y-186250471D02*
X182600883Y-186321900D01*
X182600883Y-186321900D02*
X182529454Y-186393328D01*
X182529454Y-186393328D02*
X182458026Y-186321900D01*
X182458026Y-186321900D02*
X182529454Y-186250471D01*
X182529454Y-186250471D02*
X182529454Y-186393328D01*
X182529454Y-185464757D02*
X182600883Y-185536185D01*
X182600883Y-185536185D02*
X182529454Y-185607614D01*
X182529454Y-185607614D02*
X182458026Y-185536185D01*
X182458026Y-185536185D02*
X182529454Y-185464757D01*
X182529454Y-185464757D02*
X182529454Y-185607614D01*
X184386597Y-186393328D02*
X184386597Y-184893328D01*
X184386597Y-184893328D02*
X185243740Y-186393328D01*
X185243740Y-186393328D02*
X185243740Y-184893328D01*
X185886598Y-185964757D02*
X186600884Y-185964757D01*
X185743741Y-186393328D02*
X186243741Y-184893328D01*
X186243741Y-184893328D02*
X186743741Y-186393328D01*
X187172312Y-186321900D02*
X187386598Y-186393328D01*
X187386598Y-186393328D02*
X187743740Y-186393328D01*
X187743740Y-186393328D02*
X187886598Y-186321900D01*
X187886598Y-186321900D02*
X187958026Y-186250471D01*
X187958026Y-186250471D02*
X188029455Y-186107614D01*
X188029455Y-186107614D02*
X188029455Y-185964757D01*
X188029455Y-185964757D02*
X187958026Y-185821900D01*
X187958026Y-185821900D02*
X187886598Y-185750471D01*
X187886598Y-185750471D02*
X187743740Y-185679042D01*
X187743740Y-185679042D02*
X187458026Y-185607614D01*
X187458026Y-185607614D02*
X187315169Y-185536185D01*
X187315169Y-185536185D02*
X187243740Y-185464757D01*
X187243740Y-185464757D02*
X187172312Y-185321900D01*
X187172312Y-185321900D02*
X187172312Y-185179042D01*
X187172312Y-185179042D02*
X187243740Y-185036185D01*
X187243740Y-185036185D02*
X187315169Y-184964757D01*
X187315169Y-184964757D02*
X187458026Y-184893328D01*
X187458026Y-184893328D02*
X187815169Y-184893328D01*
X187815169Y-184893328D02*
X188029455Y-184964757D01*
X188600883Y-185964757D02*
X189315169Y-185964757D01*
X188458026Y-186393328D02*
X188958026Y-184893328D01*
X188958026Y-184893328D02*
X189458026Y-186393328D01*
X191100882Y-186393328D02*
X191100882Y-184893328D01*
X191100882Y-184893328D02*
X191600882Y-185964757D01*
X191600882Y-185964757D02*
X192100882Y-184893328D01*
X192100882Y-184893328D02*
X192100882Y-186393328D01*
X193029454Y-186393328D02*
X192886597Y-186321900D01*
X192886597Y-186321900D02*
X192815168Y-186250471D01*
X192815168Y-186250471D02*
X192743740Y-186107614D01*
X192743740Y-186107614D02*
X192743740Y-185679042D01*
X192743740Y-185679042D02*
X192815168Y-185536185D01*
X192815168Y-185536185D02*
X192886597Y-185464757D01*
X192886597Y-185464757D02*
X193029454Y-185393328D01*
X193029454Y-185393328D02*
X193243740Y-185393328D01*
X193243740Y-185393328D02*
X193386597Y-185464757D01*
X193386597Y-185464757D02*
X193458026Y-185536185D01*
X193458026Y-185536185D02*
X193529454Y-185679042D01*
X193529454Y-185679042D02*
X193529454Y-186107614D01*
X193529454Y-186107614D02*
X193458026Y-186250471D01*
X193458026Y-186250471D02*
X193386597Y-186321900D01*
X193386597Y-186321900D02*
X193243740Y-186393328D01*
X193243740Y-186393328D02*
X193029454Y-186393328D01*
X193958026Y-185393328D02*
X194529454Y-185393328D01*
X194172311Y-184893328D02*
X194172311Y-186179042D01*
X194172311Y-186179042D02*
X194243740Y-186321900D01*
X194243740Y-186321900D02*
X194386597Y-186393328D01*
X194386597Y-186393328D02*
X194529454Y-186393328D01*
X195029454Y-186393328D02*
X195029454Y-184893328D01*
X195672312Y-186393328D02*
X195672312Y-185607614D01*
X195672312Y-185607614D02*
X195600883Y-185464757D01*
X195600883Y-185464757D02*
X195458026Y-185393328D01*
X195458026Y-185393328D02*
X195243740Y-185393328D01*
X195243740Y-185393328D02*
X195100883Y-185464757D01*
X195100883Y-185464757D02*
X195029454Y-185536185D01*
X196958026Y-186321900D02*
X196815169Y-186393328D01*
X196815169Y-186393328D02*
X196529455Y-186393328D01*
X196529455Y-186393328D02*
X196386597Y-186321900D01*
X196386597Y-186321900D02*
X196315169Y-186179042D01*
X196315169Y-186179042D02*
X196315169Y-185607614D01*
X196315169Y-185607614D02*
X196386597Y-185464757D01*
X196386597Y-185464757D02*
X196529455Y-185393328D01*
X196529455Y-185393328D02*
X196815169Y-185393328D01*
X196815169Y-185393328D02*
X196958026Y-185464757D01*
X196958026Y-185464757D02*
X197029455Y-185607614D01*
X197029455Y-185607614D02*
X197029455Y-185750471D01*
X197029455Y-185750471D02*
X196315169Y-185893328D01*
X197672311Y-186393328D02*
X197672311Y-185393328D01*
X197672311Y-185679042D02*
X197743740Y-185536185D01*
X197743740Y-185536185D02*
X197815169Y-185464757D01*
X197815169Y-185464757D02*
X197958026Y-185393328D01*
X197958026Y-185393328D02*
X198100883Y-185393328D01*
X198600882Y-186393328D02*
X198600882Y-184893328D01*
X198600882Y-185464757D02*
X198743740Y-185393328D01*
X198743740Y-185393328D02*
X199029454Y-185393328D01*
X199029454Y-185393328D02*
X199172311Y-185464757D01*
X199172311Y-185464757D02*
X199243740Y-185536185D01*
X199243740Y-185536185D02*
X199315168Y-185679042D01*
X199315168Y-185679042D02*
X199315168Y-186107614D01*
X199315168Y-186107614D02*
X199243740Y-186250471D01*
X199243740Y-186250471D02*
X199172311Y-186321900D01*
X199172311Y-186321900D02*
X199029454Y-186393328D01*
X199029454Y-186393328D02*
X198743740Y-186393328D01*
X198743740Y-186393328D02*
X198600882Y-186321900D01*
X200172311Y-186393328D02*
X200029454Y-186321900D01*
X200029454Y-186321900D02*
X199958025Y-186250471D01*
X199958025Y-186250471D02*
X199886597Y-186107614D01*
X199886597Y-186107614D02*
X199886597Y-185679042D01*
X199886597Y-185679042D02*
X199958025Y-185536185D01*
X199958025Y-185536185D02*
X200029454Y-185464757D01*
X200029454Y-185464757D02*
X200172311Y-185393328D01*
X200172311Y-185393328D02*
X200386597Y-185393328D01*
X200386597Y-185393328D02*
X200529454Y-185464757D01*
X200529454Y-185464757D02*
X200600883Y-185536185D01*
X200600883Y-185536185D02*
X200672311Y-185679042D01*
X200672311Y-185679042D02*
X200672311Y-186107614D01*
X200672311Y-186107614D02*
X200600883Y-186250471D01*
X200600883Y-186250471D02*
X200529454Y-186321900D01*
X200529454Y-186321900D02*
X200386597Y-186393328D01*
X200386597Y-186393328D02*
X200172311Y-186393328D01*
X201958026Y-186393328D02*
X201958026Y-185607614D01*
X201958026Y-185607614D02*
X201886597Y-185464757D01*
X201886597Y-185464757D02*
X201743740Y-185393328D01*
X201743740Y-185393328D02*
X201458026Y-185393328D01*
X201458026Y-185393328D02*
X201315168Y-185464757D01*
X201958026Y-186321900D02*
X201815168Y-186393328D01*
X201815168Y-186393328D02*
X201458026Y-186393328D01*
X201458026Y-186393328D02*
X201315168Y-186321900D01*
X201315168Y-186321900D02*
X201243740Y-186179042D01*
X201243740Y-186179042D02*
X201243740Y-186036185D01*
X201243740Y-186036185D02*
X201315168Y-185893328D01*
X201315168Y-185893328D02*
X201458026Y-185821900D01*
X201458026Y-185821900D02*
X201815168Y-185821900D01*
X201815168Y-185821900D02*
X201958026Y-185750471D01*
X202672311Y-186393328D02*
X202672311Y-185393328D01*
X202672311Y-185679042D02*
X202743740Y-185536185D01*
X202743740Y-185536185D02*
X202815169Y-185464757D01*
X202815169Y-185464757D02*
X202958026Y-185393328D01*
X202958026Y-185393328D02*
X203100883Y-185393328D01*
X204243740Y-186393328D02*
X204243740Y-184893328D01*
X204243740Y-186321900D02*
X204100882Y-186393328D01*
X204100882Y-186393328D02*
X203815168Y-186393328D01*
X203815168Y-186393328D02*
X203672311Y-186321900D01*
X203672311Y-186321900D02*
X203600882Y-186250471D01*
X203600882Y-186250471D02*
X203529454Y-186107614D01*
X203529454Y-186107614D02*
X203529454Y-185679042D01*
X203529454Y-185679042D02*
X203600882Y-185536185D01*
X203600882Y-185536185D02*
X203672311Y-185464757D01*
X203672311Y-185464757D02*
X203815168Y-185393328D01*
X203815168Y-185393328D02*
X204100882Y-185393328D01*
X204100882Y-185393328D02*
X204243740Y-185464757D01*
X205886597Y-184893328D02*
X206386597Y-186393328D01*
X206386597Y-186393328D02*
X206886597Y-184893328D01*
X208029454Y-185393328D02*
X208029454Y-186393328D01*
X207672311Y-184821900D02*
X207315168Y-185893328D01*
X207315168Y-185893328D02*
X208243739Y-185893328D01*
X208815167Y-186250471D02*
X208886596Y-186321900D01*
X208886596Y-186321900D02*
X208815167Y-186393328D01*
X208815167Y-186393328D02*
X208743739Y-186321900D01*
X208743739Y-186321900D02*
X208815167Y-186250471D01*
X208815167Y-186250471D02*
X208815167Y-186393328D01*
X209529453Y-186393328D02*
X209529453Y-184893328D01*
X209672311Y-185821900D02*
X210100882Y-186393328D01*
X210100882Y-185393328D02*
X209529453Y-185964757D01*
X210743739Y-186393328D02*
X210743739Y-185393328D01*
X210743739Y-184893328D02*
X210672311Y-184964757D01*
X210672311Y-184964757D02*
X210743739Y-185036185D01*
X210743739Y-185036185D02*
X210815168Y-184964757D01*
X210815168Y-184964757D02*
X210743739Y-184893328D01*
X210743739Y-184893328D02*
X210743739Y-185036185D01*
X212100883Y-186321900D02*
X211958025Y-186393328D01*
X211958025Y-186393328D02*
X211672311Y-186393328D01*
X211672311Y-186393328D02*
X211529454Y-186321900D01*
X211529454Y-186321900D02*
X211458025Y-186250471D01*
X211458025Y-186250471D02*
X211386597Y-186107614D01*
X211386597Y-186107614D02*
X211386597Y-185679042D01*
X211386597Y-185679042D02*
X211458025Y-185536185D01*
X211458025Y-185536185D02*
X211529454Y-185464757D01*
X211529454Y-185464757D02*
X211672311Y-185393328D01*
X211672311Y-185393328D02*
X211958025Y-185393328D01*
X211958025Y-185393328D02*
X212100883Y-185464757D01*
X213386597Y-186393328D02*
X213386597Y-185607614D01*
X213386597Y-185607614D02*
X213315168Y-185464757D01*
X213315168Y-185464757D02*
X213172311Y-185393328D01*
X213172311Y-185393328D02*
X212886597Y-185393328D01*
X212886597Y-185393328D02*
X212743739Y-185464757D01*
X213386597Y-186321900D02*
X213243739Y-186393328D01*
X213243739Y-186393328D02*
X212886597Y-186393328D01*
X212886597Y-186393328D02*
X212743739Y-186321900D01*
X212743739Y-186321900D02*
X212672311Y-186179042D01*
X212672311Y-186179042D02*
X212672311Y-186036185D01*
X212672311Y-186036185D02*
X212743739Y-185893328D01*
X212743739Y-185893328D02*
X212886597Y-185821900D01*
X212886597Y-185821900D02*
X213243739Y-185821900D01*
X213243739Y-185821900D02*
X213386597Y-185750471D01*
X214743740Y-186393328D02*
X214743740Y-184893328D01*
X214743740Y-186321900D02*
X214600882Y-186393328D01*
X214600882Y-186393328D02*
X214315168Y-186393328D01*
X214315168Y-186393328D02*
X214172311Y-186321900D01*
X214172311Y-186321900D02*
X214100882Y-186250471D01*
X214100882Y-186250471D02*
X214029454Y-186107614D01*
X214029454Y-186107614D02*
X214029454Y-185679042D01*
X214029454Y-185679042D02*
X214100882Y-185536185D01*
X214100882Y-185536185D02*
X214172311Y-185464757D01*
X214172311Y-185464757D02*
X214315168Y-185393328D01*
X214315168Y-185393328D02*
X214600882Y-185393328D01*
X214600882Y-185393328D02*
X214743740Y-185464757D01*
X215100883Y-186536185D02*
X216243740Y-186536185D01*
X216600882Y-185393328D02*
X216600882Y-186893328D01*
X216600882Y-185464757D02*
X216743740Y-185393328D01*
X216743740Y-185393328D02*
X217029454Y-185393328D01*
X217029454Y-185393328D02*
X217172311Y-185464757D01*
X217172311Y-185464757D02*
X217243740Y-185536185D01*
X217243740Y-185536185D02*
X217315168Y-185679042D01*
X217315168Y-185679042D02*
X217315168Y-186107614D01*
X217315168Y-186107614D02*
X217243740Y-186250471D01*
X217243740Y-186250471D02*
X217172311Y-186321900D01*
X217172311Y-186321900D02*
X217029454Y-186393328D01*
X217029454Y-186393328D02*
X216743740Y-186393328D01*
X216743740Y-186393328D02*
X216600882Y-186321900D01*
X218600883Y-186321900D02*
X218458025Y-186393328D01*
X218458025Y-186393328D02*
X218172311Y-186393328D01*
X218172311Y-186393328D02*
X218029454Y-186321900D01*
X218029454Y-186321900D02*
X217958025Y-186250471D01*
X217958025Y-186250471D02*
X217886597Y-186107614D01*
X217886597Y-186107614D02*
X217886597Y-185679042D01*
X217886597Y-185679042D02*
X217958025Y-185536185D01*
X217958025Y-185536185D02*
X218029454Y-185464757D01*
X218029454Y-185464757D02*
X218172311Y-185393328D01*
X218172311Y-185393328D02*
X218458025Y-185393328D01*
X218458025Y-185393328D02*
X218600883Y-185464757D01*
X219243739Y-186393328D02*
X219243739Y-184893328D01*
X219243739Y-185464757D02*
X219386597Y-185393328D01*
X219386597Y-185393328D02*
X219672311Y-185393328D01*
X219672311Y-185393328D02*
X219815168Y-185464757D01*
X219815168Y-185464757D02*
X219886597Y-185536185D01*
X219886597Y-185536185D02*
X219958025Y-185679042D01*
X219958025Y-185679042D02*
X219958025Y-186107614D01*
X219958025Y-186107614D02*
X219886597Y-186250471D01*
X219886597Y-186250471D02*
X219815168Y-186321900D01*
X219815168Y-186321900D02*
X219672311Y-186393328D01*
X219672311Y-186393328D02*
X219386597Y-186393328D01*
X219386597Y-186393328D02*
X219243739Y-186321900D01*
D10*
D11*
X177002200Y-181507200D02*
X285002200Y-181507200D01*
D10*
D11*
X178386598Y-183621900D02*
X178600884Y-183693328D01*
X178600884Y-183693328D02*
X178958026Y-183693328D01*
X178958026Y-183693328D02*
X179100884Y-183621900D01*
X179100884Y-183621900D02*
X179172312Y-183550471D01*
X179172312Y-183550471D02*
X179243741Y-183407614D01*
X179243741Y-183407614D02*
X179243741Y-183264757D01*
X179243741Y-183264757D02*
X179172312Y-183121900D01*
X179172312Y-183121900D02*
X179100884Y-183050471D01*
X179100884Y-183050471D02*
X178958026Y-182979042D01*
X178958026Y-182979042D02*
X178672312Y-182907614D01*
X178672312Y-182907614D02*
X178529455Y-182836185D01*
X178529455Y-182836185D02*
X178458026Y-182764757D01*
X178458026Y-182764757D02*
X178386598Y-182621900D01*
X178386598Y-182621900D02*
X178386598Y-182479042D01*
X178386598Y-182479042D02*
X178458026Y-182336185D01*
X178458026Y-182336185D02*
X178529455Y-182264757D01*
X178529455Y-182264757D02*
X178672312Y-182193328D01*
X178672312Y-182193328D02*
X179029455Y-182193328D01*
X179029455Y-182193328D02*
X179243741Y-182264757D01*
X179886597Y-183693328D02*
X179886597Y-182193328D01*
X180529455Y-183693328D02*
X180529455Y-182907614D01*
X180529455Y-182907614D02*
X180458026Y-182764757D01*
X180458026Y-182764757D02*
X180315169Y-182693328D01*
X180315169Y-182693328D02*
X180100883Y-182693328D01*
X180100883Y-182693328D02*
X179958026Y-182764757D01*
X179958026Y-182764757D02*
X179886597Y-182836185D01*
X181815169Y-183621900D02*
X181672312Y-183693328D01*
X181672312Y-183693328D02*
X181386598Y-183693328D01*
X181386598Y-183693328D02*
X181243740Y-183621900D01*
X181243740Y-183621900D02*
X181172312Y-183479042D01*
X181172312Y-183479042D02*
X181172312Y-182907614D01*
X181172312Y-182907614D02*
X181243740Y-182764757D01*
X181243740Y-182764757D02*
X181386598Y-182693328D01*
X181386598Y-182693328D02*
X181672312Y-182693328D01*
X181672312Y-182693328D02*
X181815169Y-182764757D01*
X181815169Y-182764757D02*
X181886598Y-182907614D01*
X181886598Y-182907614D02*
X181886598Y-183050471D01*
X181886598Y-183050471D02*
X181172312Y-183193328D01*
X183100883Y-183621900D02*
X182958026Y-183693328D01*
X182958026Y-183693328D02*
X182672312Y-183693328D01*
X182672312Y-183693328D02*
X182529454Y-183621900D01*
X182529454Y-183621900D02*
X182458026Y-183479042D01*
X182458026Y-183479042D02*
X182458026Y-182907614D01*
X182458026Y-182907614D02*
X182529454Y-182764757D01*
X182529454Y-182764757D02*
X182672312Y-182693328D01*
X182672312Y-182693328D02*
X182958026Y-182693328D01*
X182958026Y-182693328D02*
X183100883Y-182764757D01*
X183100883Y-182764757D02*
X183172312Y-182907614D01*
X183172312Y-182907614D02*
X183172312Y-183050471D01*
X183172312Y-183050471D02*
X182458026Y-183193328D01*
X183600883Y-182693328D02*
X184172311Y-182693328D01*
X183815168Y-182193328D02*
X183815168Y-183479042D01*
X183815168Y-183479042D02*
X183886597Y-183621900D01*
X183886597Y-183621900D02*
X184029454Y-183693328D01*
X184029454Y-183693328D02*
X184172311Y-183693328D01*
X184672311Y-183550471D02*
X184743740Y-183621900D01*
X184743740Y-183621900D02*
X184672311Y-183693328D01*
X184672311Y-183693328D02*
X184600883Y-183621900D01*
X184600883Y-183621900D02*
X184672311Y-183550471D01*
X184672311Y-183550471D02*
X184672311Y-183693328D01*
X184672311Y-182764757D02*
X184743740Y-182836185D01*
X184743740Y-182836185D02*
X184672311Y-182907614D01*
X184672311Y-182907614D02*
X184600883Y-182836185D01*
X184600883Y-182836185D02*
X184672311Y-182764757D01*
X184672311Y-182764757D02*
X184672311Y-182907614D01*
D10*
D11*
X197002200Y-191507200D02*
X197002200Y-194507200D01*
D10*
D11*
X261002200Y-191507200D02*
X261002200Y-198007200D01*
%TO.C,JP201*%
G36*
X44266800Y-70995000D02*
G01*
X44566800Y-70995000D01*
X44566800Y-72495000D01*
X44266800Y-72495000D01*
X44266800Y-70995000D01*
G37*
D14*
%TO.C,U301*%
G36*
X72374501Y-144249986D02*
G01*
X72374501Y-144550000D01*
X72324501Y-144600000D01*
X71149500Y-144600000D01*
X71149500Y-144525002D01*
X70849500Y-144525002D01*
X70799500Y-144475002D01*
X70799500Y-144325002D01*
X70849500Y-144275000D01*
X71149500Y-144275002D01*
X71149500Y-144200001D01*
X72324499Y-144200001D01*
X72374501Y-144249986D01*
G37*
G36*
X72374501Y-145049984D02*
G01*
X72374501Y-145350001D01*
X72324501Y-145400001D01*
X71149500Y-145400001D01*
X71149500Y-145325000D01*
X70849500Y-145325000D01*
X70799500Y-145275000D01*
X70799500Y-145125000D01*
X70849500Y-145074998D01*
X71149500Y-145075001D01*
X71149500Y-145000002D01*
X72324501Y-144999999D01*
X72374501Y-145049984D01*
G37*
G36*
X73850500Y-144275002D02*
G01*
X74150500Y-144274997D01*
X74200500Y-144325002D01*
X74200500Y-144474999D01*
X74150500Y-144525002D01*
X73850500Y-144525002D01*
X73850500Y-144600000D01*
X72675496Y-144600000D01*
X72625499Y-144550000D01*
X72625496Y-144249983D01*
X72675501Y-144200001D01*
X73850500Y-144200001D01*
X73850500Y-144275002D01*
G37*
G36*
X73850500Y-145075001D02*
G01*
X74150500Y-145074998D01*
X74200500Y-145125000D01*
X74200500Y-145274998D01*
X74150500Y-145325000D01*
X73850500Y-145325000D01*
X73850500Y-145400001D01*
X72675496Y-145400001D01*
X72625499Y-145350001D01*
X72625496Y-145049982D01*
X72675499Y-145000002D01*
X73850500Y-145000002D01*
X73850500Y-145075001D01*
G37*
G36*
X73850000Y-143375045D02*
G01*
X74149999Y-143375045D01*
X74199999Y-143425042D01*
X74199999Y-143575044D01*
X74149999Y-143625044D01*
X73850000Y-143625044D01*
X73850000Y-143700045D01*
X71150000Y-143700045D01*
X71150000Y-143625044D01*
X70850001Y-143625044D01*
X70800001Y-143575044D01*
X70800001Y-143425044D01*
X70850001Y-143375042D01*
X71150000Y-143375045D01*
X71150000Y-143300043D01*
X73850000Y-143300043D01*
X73850000Y-143375045D01*
G37*
G36*
X73850000Y-145975001D02*
G01*
X74149999Y-145975001D01*
X74199999Y-146024999D01*
X74199999Y-146175001D01*
X74149999Y-146225001D01*
X73850000Y-146225001D01*
X73850000Y-146300002D01*
X73375000Y-146300002D01*
X73375000Y-147350000D01*
X73325000Y-147400002D01*
X73175000Y-147400000D01*
X73125000Y-147350000D01*
X73124997Y-146300002D01*
X72875001Y-146300002D01*
X72875001Y-147350000D01*
X72825001Y-147400002D01*
X72675001Y-147400000D01*
X72624998Y-147350000D01*
X72625001Y-146300002D01*
X72374999Y-146300002D01*
X72374999Y-147350000D01*
X72325002Y-147400000D01*
X72174999Y-147400002D01*
X72125002Y-147350000D01*
X72125002Y-146300002D01*
X71875000Y-146300002D01*
X71875000Y-147350000D01*
X71825000Y-147400000D01*
X71675000Y-147400000D01*
X71625000Y-147350000D01*
X71625000Y-146300002D01*
X71150000Y-146300002D01*
X71150000Y-146225001D01*
X70850001Y-146225001D01*
X70800001Y-146175001D01*
X70800001Y-146025001D01*
X70850001Y-145974999D01*
X71150000Y-145975001D01*
X71150000Y-145900000D01*
X73850000Y-145900000D01*
X73850000Y-145975001D01*
G37*
%TO.C,U304*%
G36*
X124874501Y-144249986D02*
G01*
X124874501Y-144550000D01*
X124824501Y-144600000D01*
X123649500Y-144600000D01*
X123649500Y-144525002D01*
X123349500Y-144525002D01*
X123299500Y-144475002D01*
X123299500Y-144325002D01*
X123349500Y-144275000D01*
X123649500Y-144275002D01*
X123649500Y-144200001D01*
X124824499Y-144200001D01*
X124874501Y-144249986D01*
G37*
G36*
X124874501Y-145049984D02*
G01*
X124874501Y-145350001D01*
X124824501Y-145400001D01*
X123649500Y-145400001D01*
X123649500Y-145325000D01*
X123349500Y-145325000D01*
X123299500Y-145275000D01*
X123299500Y-145125000D01*
X123349500Y-145074998D01*
X123649500Y-145075001D01*
X123649500Y-145000002D01*
X124824501Y-144999999D01*
X124874501Y-145049984D01*
G37*
G36*
X126350500Y-144275002D02*
G01*
X126650500Y-144274997D01*
X126700500Y-144325002D01*
X126700500Y-144474999D01*
X126650500Y-144525002D01*
X126350500Y-144525002D01*
X126350500Y-144600000D01*
X125175496Y-144600000D01*
X125125499Y-144550000D01*
X125125496Y-144249983D01*
X125175501Y-144200001D01*
X126350500Y-144200001D01*
X126350500Y-144275002D01*
G37*
G36*
X126350500Y-145075001D02*
G01*
X126650500Y-145074998D01*
X126700500Y-145125000D01*
X126700500Y-145274998D01*
X126650500Y-145325000D01*
X126350500Y-145325000D01*
X126350500Y-145400001D01*
X125175496Y-145400001D01*
X125125499Y-145350001D01*
X125125496Y-145049982D01*
X125175499Y-145000002D01*
X126350500Y-145000002D01*
X126350500Y-145075001D01*
G37*
G36*
X126350000Y-143375045D02*
G01*
X126649999Y-143375045D01*
X126699999Y-143425042D01*
X126699999Y-143575044D01*
X126649999Y-143625044D01*
X126350000Y-143625044D01*
X126350000Y-143700045D01*
X123650000Y-143700045D01*
X123650000Y-143625044D01*
X123350001Y-143625044D01*
X123300001Y-143575044D01*
X123300001Y-143425044D01*
X123350001Y-143375042D01*
X123650000Y-143375045D01*
X123650000Y-143300043D01*
X126350000Y-143300043D01*
X126350000Y-143375045D01*
G37*
G36*
X126350000Y-145975001D02*
G01*
X126649999Y-145975001D01*
X126699999Y-146024999D01*
X126699999Y-146175001D01*
X126649999Y-146225001D01*
X126350000Y-146225001D01*
X126350000Y-146300002D01*
X125875000Y-146300002D01*
X125875000Y-147350000D01*
X125825000Y-147400002D01*
X125675000Y-147400000D01*
X125625000Y-147350000D01*
X125624997Y-146300002D01*
X125375001Y-146300002D01*
X125375001Y-147350000D01*
X125325001Y-147400002D01*
X125175001Y-147400000D01*
X125124998Y-147350000D01*
X125125001Y-146300002D01*
X124874999Y-146300002D01*
X124874999Y-147350000D01*
X124825002Y-147400000D01*
X124674999Y-147400002D01*
X124625002Y-147350000D01*
X124625002Y-146300002D01*
X124375000Y-146300002D01*
X124375000Y-147350000D01*
X124325000Y-147400000D01*
X124175000Y-147400000D01*
X124125000Y-147350000D01*
X124125000Y-146300002D01*
X123650000Y-146300002D01*
X123650000Y-146225001D01*
X123350001Y-146225001D01*
X123300001Y-146175001D01*
X123300001Y-146025001D01*
X123350001Y-145974999D01*
X123650000Y-145975001D01*
X123650000Y-145900000D01*
X126350000Y-145900000D01*
X126350000Y-145975001D01*
G37*
%TO.C,U306*%
G36*
X178874501Y-143749986D02*
G01*
X178874501Y-144050000D01*
X178824501Y-144100000D01*
X177649500Y-144100000D01*
X177649500Y-144025002D01*
X177349500Y-144025002D01*
X177299500Y-143975002D01*
X177299500Y-143825002D01*
X177349500Y-143775000D01*
X177649500Y-143775002D01*
X177649500Y-143700001D01*
X178824499Y-143700001D01*
X178874501Y-143749986D01*
G37*
G36*
X178874501Y-144549984D02*
G01*
X178874501Y-144850001D01*
X178824501Y-144900001D01*
X177649500Y-144900001D01*
X177649500Y-144825000D01*
X177349500Y-144825000D01*
X177299500Y-144775000D01*
X177299500Y-144625000D01*
X177349500Y-144574998D01*
X177649500Y-144575001D01*
X177649500Y-144500002D01*
X178824501Y-144499999D01*
X178874501Y-144549984D01*
G37*
G36*
X180350500Y-143775002D02*
G01*
X180650500Y-143774997D01*
X180700500Y-143825002D01*
X180700500Y-143974999D01*
X180650500Y-144025002D01*
X180350500Y-144025002D01*
X180350500Y-144100000D01*
X179175496Y-144100000D01*
X179125499Y-144050000D01*
X179125496Y-143749983D01*
X179175501Y-143700001D01*
X180350500Y-143700001D01*
X180350500Y-143775002D01*
G37*
G36*
X180350500Y-144575001D02*
G01*
X180650500Y-144574998D01*
X180700500Y-144625000D01*
X180700500Y-144774998D01*
X180650500Y-144825000D01*
X180350500Y-144825000D01*
X180350500Y-144900001D01*
X179175496Y-144900001D01*
X179125499Y-144850001D01*
X179125496Y-144549982D01*
X179175499Y-144500002D01*
X180350500Y-144500002D01*
X180350500Y-144575001D01*
G37*
G36*
X180350000Y-142875045D02*
G01*
X180649999Y-142875045D01*
X180699999Y-142925042D01*
X180699999Y-143075044D01*
X180649999Y-143125044D01*
X180350000Y-143125044D01*
X180350000Y-143200045D01*
X177650000Y-143200045D01*
X177650000Y-143125044D01*
X177350001Y-143125044D01*
X177300001Y-143075044D01*
X177300001Y-142925044D01*
X177350001Y-142875042D01*
X177650000Y-142875045D01*
X177650000Y-142800043D01*
X180350000Y-142800043D01*
X180350000Y-142875045D01*
G37*
G36*
X180350000Y-145475001D02*
G01*
X180649999Y-145475001D01*
X180699999Y-145524999D01*
X180699999Y-145675001D01*
X180649999Y-145725001D01*
X180350000Y-145725001D01*
X180350000Y-145800002D01*
X179875000Y-145800002D01*
X179875000Y-146850000D01*
X179825000Y-146900002D01*
X179675000Y-146900000D01*
X179625000Y-146850000D01*
X179624997Y-145800002D01*
X179375001Y-145800002D01*
X179375001Y-146850000D01*
X179325001Y-146900002D01*
X179175001Y-146900000D01*
X179124998Y-146850000D01*
X179125001Y-145800002D01*
X178874999Y-145800002D01*
X178874999Y-146850000D01*
X178825002Y-146900000D01*
X178674999Y-146900002D01*
X178625002Y-146850000D01*
X178625002Y-145800002D01*
X178375000Y-145800002D01*
X178375000Y-146850000D01*
X178325000Y-146900000D01*
X178175000Y-146900000D01*
X178125000Y-146850000D01*
X178125000Y-145800002D01*
X177650000Y-145800002D01*
X177650000Y-145725001D01*
X177350001Y-145725001D01*
X177300001Y-145675001D01*
X177300001Y-145525001D01*
X177350001Y-145474999D01*
X177650000Y-145475001D01*
X177650000Y-145400000D01*
X180350000Y-145400000D01*
X180350000Y-145475001D01*
G37*
%TO.C,U303*%
G36*
X107374501Y-144249986D02*
G01*
X107374501Y-144550000D01*
X107324501Y-144600000D01*
X106149500Y-144600000D01*
X106149500Y-144525002D01*
X105849500Y-144525002D01*
X105799500Y-144475002D01*
X105799500Y-144325002D01*
X105849500Y-144275000D01*
X106149500Y-144275002D01*
X106149500Y-144200001D01*
X107324499Y-144200001D01*
X107374501Y-144249986D01*
G37*
G36*
X107374501Y-145049984D02*
G01*
X107374501Y-145350001D01*
X107324501Y-145400001D01*
X106149500Y-145400001D01*
X106149500Y-145325000D01*
X105849500Y-145325000D01*
X105799500Y-145275000D01*
X105799500Y-145125000D01*
X105849500Y-145074998D01*
X106149500Y-145075001D01*
X106149500Y-145000002D01*
X107324501Y-144999999D01*
X107374501Y-145049984D01*
G37*
G36*
X108850500Y-144275002D02*
G01*
X109150500Y-144274997D01*
X109200500Y-144325002D01*
X109200500Y-144474999D01*
X109150500Y-144525002D01*
X108850500Y-144525002D01*
X108850500Y-144600000D01*
X107675496Y-144600000D01*
X107625499Y-144550000D01*
X107625496Y-144249983D01*
X107675501Y-144200001D01*
X108850500Y-144200001D01*
X108850500Y-144275002D01*
G37*
G36*
X108850500Y-145075001D02*
G01*
X109150500Y-145074998D01*
X109200500Y-145125000D01*
X109200500Y-145274998D01*
X109150500Y-145325000D01*
X108850500Y-145325000D01*
X108850500Y-145400001D01*
X107675496Y-145400001D01*
X107625499Y-145350001D01*
X107625496Y-145049982D01*
X107675499Y-145000002D01*
X108850500Y-145000002D01*
X108850500Y-145075001D01*
G37*
G36*
X108850000Y-143375045D02*
G01*
X109149999Y-143375045D01*
X109199999Y-143425042D01*
X109199999Y-143575044D01*
X109149999Y-143625044D01*
X108850000Y-143625044D01*
X108850000Y-143700045D01*
X106150000Y-143700045D01*
X106150000Y-143625044D01*
X105850001Y-143625044D01*
X105800001Y-143575044D01*
X105800001Y-143425044D01*
X105850001Y-143375042D01*
X106150000Y-143375045D01*
X106150000Y-143300043D01*
X108850000Y-143300043D01*
X108850000Y-143375045D01*
G37*
G36*
X108850000Y-145975001D02*
G01*
X109149999Y-145975001D01*
X109199999Y-146024999D01*
X109199999Y-146175001D01*
X109149999Y-146225001D01*
X108850000Y-146225001D01*
X108850000Y-146300002D01*
X108375000Y-146300002D01*
X108375000Y-147350000D01*
X108325000Y-147400002D01*
X108175000Y-147400000D01*
X108125000Y-147350000D01*
X108124997Y-146300002D01*
X107875001Y-146300002D01*
X107875001Y-147350000D01*
X107825001Y-147400002D01*
X107675001Y-147400000D01*
X107624998Y-147350000D01*
X107625001Y-146300002D01*
X107374999Y-146300002D01*
X107374999Y-147350000D01*
X107325002Y-147400000D01*
X107174999Y-147400002D01*
X107125002Y-147350000D01*
X107125002Y-146300002D01*
X106875000Y-146300002D01*
X106875000Y-147350000D01*
X106825000Y-147400000D01*
X106675000Y-147400000D01*
X106625000Y-147350000D01*
X106625000Y-146300002D01*
X106150000Y-146300002D01*
X106150000Y-146225001D01*
X105850001Y-146225001D01*
X105800001Y-146175001D01*
X105800001Y-146025001D01*
X105850001Y-145974999D01*
X106150000Y-145975001D01*
X106150000Y-145900000D01*
X108850000Y-145900000D01*
X108850000Y-145975001D01*
G37*
%TO.C,U302*%
G36*
X89874501Y-144249986D02*
G01*
X89874501Y-144550000D01*
X89824501Y-144600000D01*
X88649500Y-144600000D01*
X88649500Y-144525002D01*
X88349500Y-144525002D01*
X88299500Y-144475002D01*
X88299500Y-144325002D01*
X88349500Y-144275000D01*
X88649500Y-144275002D01*
X88649500Y-144200001D01*
X89824499Y-144200001D01*
X89874501Y-144249986D01*
G37*
G36*
X89874501Y-145049984D02*
G01*
X89874501Y-145350001D01*
X89824501Y-145400001D01*
X88649500Y-145400001D01*
X88649500Y-145325000D01*
X88349500Y-145325000D01*
X88299500Y-145275000D01*
X88299500Y-145125000D01*
X88349500Y-145074998D01*
X88649500Y-145075001D01*
X88649500Y-145000002D01*
X89824501Y-144999999D01*
X89874501Y-145049984D01*
G37*
G36*
X91350500Y-144275002D02*
G01*
X91650500Y-144274997D01*
X91700500Y-144325002D01*
X91700500Y-144474999D01*
X91650500Y-144525002D01*
X91350500Y-144525002D01*
X91350500Y-144600000D01*
X90175496Y-144600000D01*
X90125499Y-144550000D01*
X90125496Y-144249983D01*
X90175501Y-144200001D01*
X91350500Y-144200001D01*
X91350500Y-144275002D01*
G37*
G36*
X91350500Y-145075001D02*
G01*
X91650500Y-145074998D01*
X91700500Y-145125000D01*
X91700500Y-145274998D01*
X91650500Y-145325000D01*
X91350500Y-145325000D01*
X91350500Y-145400001D01*
X90175496Y-145400001D01*
X90125499Y-145350001D01*
X90125496Y-145049982D01*
X90175499Y-145000002D01*
X91350500Y-145000002D01*
X91350500Y-145075001D01*
G37*
G36*
X91350000Y-143375045D02*
G01*
X91649999Y-143375045D01*
X91699999Y-143425042D01*
X91699999Y-143575044D01*
X91649999Y-143625044D01*
X91350000Y-143625044D01*
X91350000Y-143700045D01*
X88650000Y-143700045D01*
X88650000Y-143625044D01*
X88350001Y-143625044D01*
X88300001Y-143575044D01*
X88300001Y-143425044D01*
X88350001Y-143375042D01*
X88650000Y-143375045D01*
X88650000Y-143300043D01*
X91350000Y-143300043D01*
X91350000Y-143375045D01*
G37*
G36*
X91350000Y-145975001D02*
G01*
X91649999Y-145975001D01*
X91699999Y-146024999D01*
X91699999Y-146175001D01*
X91649999Y-146225001D01*
X91350000Y-146225001D01*
X91350000Y-146300002D01*
X90875000Y-146300002D01*
X90875000Y-147350000D01*
X90825000Y-147400002D01*
X90675000Y-147400000D01*
X90625000Y-147350000D01*
X90624997Y-146300002D01*
X90375001Y-146300002D01*
X90375001Y-147350000D01*
X90325001Y-147400002D01*
X90175001Y-147400000D01*
X90124998Y-147350000D01*
X90125001Y-146300002D01*
X89874999Y-146300002D01*
X89874999Y-147350000D01*
X89825002Y-147400000D01*
X89674999Y-147400002D01*
X89625002Y-147350000D01*
X89625002Y-146300002D01*
X89375000Y-146300002D01*
X89375000Y-147350000D01*
X89325000Y-147400000D01*
X89175000Y-147400000D01*
X89125000Y-147350000D01*
X89125000Y-146300002D01*
X88650000Y-146300002D01*
X88650000Y-146225001D01*
X88350001Y-146225001D01*
X88300001Y-146175001D01*
X88300001Y-146025001D01*
X88350001Y-145974999D01*
X88650000Y-145975001D01*
X88650000Y-145900000D01*
X91350000Y-145900000D01*
X91350000Y-145975001D01*
G37*
%TO.C,U307*%
G36*
X195874501Y-143749986D02*
G01*
X195874501Y-144050000D01*
X195824501Y-144100000D01*
X194649500Y-144100000D01*
X194649500Y-144025002D01*
X194349500Y-144025002D01*
X194299500Y-143975002D01*
X194299500Y-143825002D01*
X194349500Y-143775000D01*
X194649500Y-143775002D01*
X194649500Y-143700001D01*
X195824499Y-143700001D01*
X195874501Y-143749986D01*
G37*
G36*
X195874501Y-144549984D02*
G01*
X195874501Y-144850001D01*
X195824501Y-144900001D01*
X194649500Y-144900001D01*
X194649500Y-144825000D01*
X194349500Y-144825000D01*
X194299500Y-144775000D01*
X194299500Y-144625000D01*
X194349500Y-144574998D01*
X194649500Y-144575001D01*
X194649500Y-144500002D01*
X195824501Y-144499999D01*
X195874501Y-144549984D01*
G37*
G36*
X197350500Y-143775002D02*
G01*
X197650500Y-143774997D01*
X197700500Y-143825002D01*
X197700500Y-143974999D01*
X197650500Y-144025002D01*
X197350500Y-144025002D01*
X197350500Y-144100000D01*
X196175496Y-144100000D01*
X196125499Y-144050000D01*
X196125496Y-143749983D01*
X196175501Y-143700001D01*
X197350500Y-143700001D01*
X197350500Y-143775002D01*
G37*
G36*
X197350500Y-144575001D02*
G01*
X197650500Y-144574998D01*
X197700500Y-144625000D01*
X197700500Y-144774998D01*
X197650500Y-144825000D01*
X197350500Y-144825000D01*
X197350500Y-144900001D01*
X196175496Y-144900001D01*
X196125499Y-144850001D01*
X196125496Y-144549982D01*
X196175499Y-144500002D01*
X197350500Y-144500002D01*
X197350500Y-144575001D01*
G37*
G36*
X197350000Y-142875045D02*
G01*
X197649999Y-142875045D01*
X197699999Y-142925042D01*
X197699999Y-143075044D01*
X197649999Y-143125044D01*
X197350000Y-143125044D01*
X197350000Y-143200045D01*
X194650000Y-143200045D01*
X194650000Y-143125044D01*
X194350001Y-143125044D01*
X194300001Y-143075044D01*
X194300001Y-142925044D01*
X194350001Y-142875042D01*
X194650000Y-142875045D01*
X194650000Y-142800043D01*
X197350000Y-142800043D01*
X197350000Y-142875045D01*
G37*
G36*
X197350000Y-145475001D02*
G01*
X197649999Y-145475001D01*
X197699999Y-145524999D01*
X197699999Y-145675001D01*
X197649999Y-145725001D01*
X197350000Y-145725001D01*
X197350000Y-145800002D01*
X196875000Y-145800002D01*
X196875000Y-146850000D01*
X196825000Y-146900002D01*
X196675000Y-146900000D01*
X196625000Y-146850000D01*
X196624997Y-145800002D01*
X196375001Y-145800002D01*
X196375001Y-146850000D01*
X196325001Y-146900002D01*
X196175001Y-146900000D01*
X196124998Y-146850000D01*
X196125001Y-145800002D01*
X195874999Y-145800002D01*
X195874999Y-146850000D01*
X195825002Y-146900000D01*
X195674999Y-146900002D01*
X195625002Y-146850000D01*
X195625002Y-145800002D01*
X195375000Y-145800002D01*
X195375000Y-146850000D01*
X195325000Y-146900000D01*
X195175000Y-146900000D01*
X195125000Y-146850000D01*
X195125000Y-145800002D01*
X194650000Y-145800002D01*
X194650000Y-145725001D01*
X194350001Y-145725001D01*
X194300001Y-145675001D01*
X194300001Y-145525001D01*
X194350001Y-145474999D01*
X194650000Y-145475001D01*
X194650000Y-145400000D01*
X197350000Y-145400000D01*
X197350000Y-145475001D01*
G37*
%TO.C,U305*%
G36*
X161874501Y-143749986D02*
G01*
X161874501Y-144050000D01*
X161824501Y-144100000D01*
X160649500Y-144100000D01*
X160649500Y-144025002D01*
X160349500Y-144025002D01*
X160299500Y-143975002D01*
X160299500Y-143825002D01*
X160349500Y-143775000D01*
X160649500Y-143775002D01*
X160649500Y-143700001D01*
X161824499Y-143700001D01*
X161874501Y-143749986D01*
G37*
G36*
X161874501Y-144549984D02*
G01*
X161874501Y-144850001D01*
X161824501Y-144900001D01*
X160649500Y-144900001D01*
X160649500Y-144825000D01*
X160349500Y-144825000D01*
X160299500Y-144775000D01*
X160299500Y-144625000D01*
X160349500Y-144574998D01*
X160649500Y-144575001D01*
X160649500Y-144500002D01*
X161824501Y-144499999D01*
X161874501Y-144549984D01*
G37*
G36*
X163350500Y-143775002D02*
G01*
X163650500Y-143774997D01*
X163700500Y-143825002D01*
X163700500Y-143974999D01*
X163650500Y-144025002D01*
X163350500Y-144025002D01*
X163350500Y-144100000D01*
X162175496Y-144100000D01*
X162125499Y-144050000D01*
X162125496Y-143749983D01*
X162175501Y-143700001D01*
X163350500Y-143700001D01*
X163350500Y-143775002D01*
G37*
G36*
X163350500Y-144575001D02*
G01*
X163650500Y-144574998D01*
X163700500Y-144625000D01*
X163700500Y-144774998D01*
X163650500Y-144825000D01*
X163350500Y-144825000D01*
X163350500Y-144900001D01*
X162175496Y-144900001D01*
X162125499Y-144850001D01*
X162125496Y-144549982D01*
X162175499Y-144500002D01*
X163350500Y-144500002D01*
X163350500Y-144575001D01*
G37*
G36*
X163350000Y-142875045D02*
G01*
X163649999Y-142875045D01*
X163699999Y-142925042D01*
X163699999Y-143075044D01*
X163649999Y-143125044D01*
X163350000Y-143125044D01*
X163350000Y-143200045D01*
X160650000Y-143200045D01*
X160650000Y-143125044D01*
X160350001Y-143125044D01*
X160300001Y-143075044D01*
X160300001Y-142925044D01*
X160350001Y-142875042D01*
X160650000Y-142875045D01*
X160650000Y-142800043D01*
X163350000Y-142800043D01*
X163350000Y-142875045D01*
G37*
G36*
X163350000Y-145475001D02*
G01*
X163649999Y-145475001D01*
X163699999Y-145524999D01*
X163699999Y-145675001D01*
X163649999Y-145725001D01*
X163350000Y-145725001D01*
X163350000Y-145800002D01*
X162875000Y-145800002D01*
X162875000Y-146850000D01*
X162825000Y-146900002D01*
X162675000Y-146900000D01*
X162625000Y-146850000D01*
X162624997Y-145800002D01*
X162375001Y-145800002D01*
X162375001Y-146850000D01*
X162325001Y-146900002D01*
X162175001Y-146900000D01*
X162124998Y-146850000D01*
X162125001Y-145800002D01*
X161874999Y-145800002D01*
X161874999Y-146850000D01*
X161825002Y-146900000D01*
X161674999Y-146900002D01*
X161625002Y-146850000D01*
X161625002Y-145800002D01*
X161375000Y-145800002D01*
X161375000Y-146850000D01*
X161325000Y-146900000D01*
X161175000Y-146900000D01*
X161125000Y-146850000D01*
X161125000Y-145800002D01*
X160650000Y-145800002D01*
X160650000Y-145725001D01*
X160350001Y-145725001D01*
X160300001Y-145675001D01*
X160300001Y-145525001D01*
X160350001Y-145474999D01*
X160650000Y-145475001D01*
X160650000Y-145400000D01*
X163350000Y-145400000D01*
X163350000Y-145475001D01*
G37*
%TD*%
D15*
%TO.C,C302*%
X99000000Y-135012755D03*
D16*
X99000000Y-127512755D03*
%TD*%
D17*
%TO.C,C307*%
X83500000Y-143500000D03*
X83500000Y-146625000D03*
%TD*%
D18*
%TO.C,R117*%
X133325000Y-30500000D03*
X131500000Y-30500000D03*
%TD*%
D19*
%TO.C,R302*%
X92500000Y-140000000D03*
X92500000Y-141195000D03*
%TD*%
D20*
%TO.C,D301*%
X81000000Y-119880000D03*
D21*
X81000000Y-135120000D03*
%TD*%
D18*
%TO.C,R216*%
X45366800Y-74045000D03*
X43541800Y-74045000D03*
%TD*%
D17*
%TO.C,C305*%
X79000000Y-143500000D03*
X79000000Y-146625000D03*
%TD*%
D22*
%TO.C,JP201*%
X43766800Y-71745000D03*
X45066800Y-71745000D03*
%TD*%
D17*
%TO.C,C325*%
X202000000Y-143000000D03*
X202000000Y-146125000D03*
%TD*%
D18*
%TO.C,R212*%
X42095000Y-55300000D03*
X40270000Y-55300000D03*
%TD*%
D23*
%TO.C,F101*%
X18798200Y-149597400D03*
D24*
X22201800Y-149597400D03*
X22201800Y-139691400D03*
X18798200Y-139691400D03*
%TD*%
D17*
%TO.C,C310*%
X101500000Y-143500000D03*
X101500000Y-146625000D03*
%TD*%
%TO.C,C322*%
X173000000Y-143000000D03*
X173000000Y-146125000D03*
%TD*%
D25*
%TO.C,D101*%
X48487246Y-137000000D03*
D26*
X28487246Y-137000000D03*
%TD*%
D27*
%TO.C,J102*%
X30680000Y-17132500D03*
D28*
X28140000Y-17132500D03*
%TD*%
D29*
%TO.C,C316*%
X207500000Y-143000000D03*
D30*
X207500000Y-146500000D03*
%TD*%
D31*
%TO.C,J106*%
X123590000Y-157500000D03*
D28*
X126130000Y-157500000D03*
%TD*%
D32*
%TO.C,C301*%
X58500000Y-143500000D03*
D16*
X58500000Y-148500000D03*
%TD*%
D17*
%TO.C,C202*%
X49320101Y-92000000D03*
X49320101Y-95125000D03*
%TD*%
D33*
%TO.C,C212*%
X31000000Y-63000000D03*
X34125000Y-63000000D03*
%TD*%
D19*
%TO.C,R306*%
X87500000Y-139500000D03*
X87500000Y-140695000D03*
%TD*%
D34*
%TO.C,R209*%
X41595000Y-54100000D03*
X40400000Y-54100000D03*
%TD*%
D19*
%TO.C,R303*%
X110000000Y-140000000D03*
X110000000Y-141195000D03*
%TD*%
%TO.C,R312*%
X159500000Y-139000000D03*
X159500000Y-140195000D03*
%TD*%
D18*
%TO.C,R102*%
X133325000Y-20000000D03*
X131500000Y-20000000D03*
%TD*%
D32*
%TO.C,C303*%
X139000000Y-143500000D03*
D16*
X139000000Y-148500000D03*
%TD*%
D35*
%TO.C,C208*%
X55925101Y-99220000D03*
X54790101Y-99220000D03*
%TD*%
D17*
%TO.C,C203*%
X46820101Y-92000000D03*
X46820101Y-95125000D03*
%TD*%
D36*
%TO.C,C306*%
X77000000Y-144000000D03*
X77000000Y-145135000D03*
%TD*%
%TO.C,C324*%
X175000000Y-143000000D03*
X175000000Y-144135000D03*
%TD*%
D18*
%TO.C,R103*%
X133325000Y-21500000D03*
X131500000Y-21500000D03*
%TD*%
D36*
%TO.C,C321*%
X166000000Y-143000000D03*
X166000000Y-144135000D03*
%TD*%
D19*
%TO.C,R114*%
X147000000Y-21500000D03*
X147000000Y-22695000D03*
%TD*%
D18*
%TO.C,R108*%
X133325000Y-29000000D03*
X131500000Y-29000000D03*
%TD*%
D31*
%TO.C,J109*%
X194460000Y-157000000D03*
D28*
X197000000Y-157000000D03*
%TD*%
D37*
%TO.C,C103*%
X34500000Y-121500000D03*
D16*
X42000000Y-121500000D03*
%TD*%
D38*
%TO.C,C210*%
X29500000Y-54000000D03*
X30635000Y-54000000D03*
%TD*%
D39*
%TO.C,R207*%
X50860101Y-97870000D03*
X50860101Y-99695000D03*
%TD*%
D40*
%TO.C,R213*%
X36200000Y-55300000D03*
X36200000Y-53475000D03*
%TD*%
D34*
%TO.C,R219*%
X44961800Y-64045000D03*
X43766800Y-64045000D03*
%TD*%
D41*
%TO.C,C205*%
X87120101Y-94100000D03*
X87120101Y-97225000D03*
%TD*%
D19*
%TO.C,R301*%
X75000000Y-140000000D03*
X75000000Y-141195000D03*
%TD*%
D36*
%TO.C,C217*%
X38800000Y-54165000D03*
X38800000Y-55300000D03*
%TD*%
D19*
%TO.C,R101*%
X162500000Y-30500000D03*
X162500000Y-31695000D03*
%TD*%
D18*
%TO.C,R106*%
X133325000Y-26000000D03*
X131500000Y-26000000D03*
%TD*%
D31*
%TO.C,J104*%
X88590000Y-157500000D03*
D28*
X91130000Y-157500000D03*
%TD*%
D17*
%TO.C,C320*%
X168000000Y-143000000D03*
X168000000Y-146125000D03*
%TD*%
D40*
%TO.C,R201*%
X53070101Y-104325000D03*
X53070101Y-102500000D03*
%TD*%
D42*
%TO.C,U301*%
X71100000Y-141825002D03*
X71100000Y-142325001D03*
X71100000Y-142825000D03*
X73900000Y-142825000D03*
X73900000Y-142325001D03*
X73900000Y-141825002D03*
D43*
X73250001Y-141300002D03*
X72750000Y-141300002D03*
X72250000Y-141300002D03*
X71749999Y-141300002D03*
%TD*%
D44*
%TO.C,R211*%
X36000000Y-57500000D03*
X37825000Y-57500000D03*
%TD*%
D17*
%TO.C,C308*%
X96000000Y-143500000D03*
X96000000Y-146625000D03*
%TD*%
D33*
%TO.C,C221*%
X48366800Y-76545000D03*
X51491800Y-76545000D03*
%TD*%
D40*
%TO.C,R205*%
X54820101Y-103625000D03*
X54820101Y-101800000D03*
%TD*%
D42*
%TO.C,U304*%
X123600000Y-141825002D03*
X123600000Y-142325001D03*
X123600000Y-142825000D03*
X126400000Y-142825000D03*
X126400000Y-142325001D03*
X126400000Y-141825002D03*
D43*
X125750001Y-141300002D03*
X125250000Y-141300002D03*
X124750000Y-141300002D03*
X124249999Y-141300002D03*
%TD*%
D45*
%TO.C,C214*%
X32075000Y-26400000D03*
X35200000Y-26400000D03*
%TD*%
D38*
%TO.C,C222*%
X48366800Y-72295000D03*
X49501800Y-72295000D03*
%TD*%
%TO.C,C101*%
X37175000Y-108490000D03*
X38310000Y-108490000D03*
%TD*%
D46*
%TO.C,U101*%
X170000000Y-36140000D03*
D47*
X167460000Y-36140000D03*
X164920000Y-36140000D03*
X162380000Y-36140000D03*
X159840000Y-36140000D03*
X157300000Y-36140000D03*
X154760000Y-36140000D03*
X152220000Y-36140000D03*
X149680000Y-36140000D03*
X147140000Y-36140000D03*
X144600000Y-36140000D03*
X142060000Y-36140000D03*
X139520000Y-36140000D03*
X136980000Y-36140000D03*
X134440000Y-36140000D03*
X131900000Y-36140000D03*
X129360000Y-36140000D03*
X126820000Y-36140000D03*
X124280000Y-36140000D03*
X121742720Y-36136320D03*
X119202720Y-36136320D03*
X119202720Y-58996320D03*
X121742720Y-59000000D03*
X124282720Y-59000000D03*
X126822720Y-59000000D03*
X129362720Y-59000000D03*
X131902720Y-59000000D03*
X134442720Y-59000000D03*
X136982720Y-59000000D03*
X139522720Y-59000000D03*
X142062720Y-59000000D03*
X144602720Y-59000000D03*
X147142720Y-59000000D03*
X149682720Y-59000000D03*
X152222720Y-59000000D03*
X154762720Y-59000000D03*
X157302720Y-59000000D03*
X159842720Y-59000000D03*
X162382720Y-59000000D03*
X164922720Y-59000000D03*
X167462720Y-59000000D03*
X170002720Y-59000000D03*
%TD*%
D42*
%TO.C,U306*%
X177600000Y-141325002D03*
X177600000Y-141825001D03*
X177600000Y-142325000D03*
X180400000Y-142325000D03*
X180400000Y-141825001D03*
X180400000Y-141325002D03*
D43*
X179750001Y-140800002D03*
X179250000Y-140800002D03*
X178750000Y-140800002D03*
X178249999Y-140800002D03*
%TD*%
D19*
%TO.C,R310*%
X181500000Y-140000000D03*
X181500000Y-141195000D03*
%TD*%
D44*
%TO.C,R210*%
X35600000Y-51700000D03*
X37425000Y-51700000D03*
%TD*%
D18*
%TO.C,R218*%
X45366800Y-75545000D03*
X43541800Y-75545000D03*
%TD*%
D19*
%TO.C,R109*%
X159900000Y-29000000D03*
X159900000Y-30195000D03*
%TD*%
D48*
%TO.C,L203*%
X52366800Y-64795000D03*
X58050000Y-64795000D03*
%TD*%
D44*
%TO.C,R214*%
X36000000Y-59000000D03*
X37825000Y-59000000D03*
%TD*%
D17*
%TO.C,C311*%
X114000000Y-143500000D03*
X114000000Y-146625000D03*
%TD*%
D42*
%TO.C,U303*%
X106100000Y-141825002D03*
X106100000Y-142325001D03*
X106100000Y-142825000D03*
X108900000Y-142825000D03*
X108900000Y-142325001D03*
X108900000Y-141825002D03*
D43*
X108250001Y-141300002D03*
X107750000Y-141300002D03*
X107250000Y-141300002D03*
X106749999Y-141300002D03*
%TD*%
D49*
%TO.C,L202*%
X24000000Y-51000000D03*
X24000000Y-36640202D03*
%TD*%
D50*
%TO.C,C218*%
X35700000Y-50200000D03*
X37425000Y-50200000D03*
%TD*%
D51*
%TO.C,C225*%
X69550000Y-72125000D03*
X69550000Y-69000000D03*
%TD*%
D17*
%TO.C,C319*%
X156000000Y-143000000D03*
X156000000Y-146125000D03*
%TD*%
D18*
%TO.C,R107*%
X133325000Y-27500000D03*
X131500000Y-27500000D03*
%TD*%
D41*
%TO.C,C206*%
X82870101Y-94100000D03*
X82870101Y-97225000D03*
%TD*%
D19*
%TO.C,R115*%
X144500000Y-20000000D03*
X144500000Y-21195000D03*
%TD*%
D18*
%TO.C,R208*%
X43500000Y-57500000D03*
X41675000Y-57500000D03*
%TD*%
%TO.C,R217*%
X45566800Y-66045000D03*
X43741800Y-66045000D03*
%TD*%
D36*
%TO.C,C315*%
X120500000Y-144000000D03*
X120500000Y-145135000D03*
%TD*%
D19*
%TO.C,R116*%
X142000000Y-18500000D03*
X142000000Y-19695000D03*
%TD*%
D39*
%TO.C,R204*%
X52470101Y-97860000D03*
X52470101Y-99685000D03*
%TD*%
D51*
%TO.C,C223*%
X62500000Y-72125000D03*
X62500000Y-69000000D03*
%TD*%
D19*
%TO.C,R314*%
X193500000Y-139000000D03*
X193500000Y-140195000D03*
%TD*%
%TO.C,R307*%
X105000000Y-139500000D03*
X105000000Y-140695000D03*
%TD*%
D45*
%TO.C,C216*%
X32075000Y-32800000D03*
X35200000Y-32800000D03*
%TD*%
D20*
%TO.C,D302*%
X170500000Y-119760000D03*
D21*
X170500000Y-135000000D03*
%TD*%
D33*
%TO.C,C220*%
X48366800Y-74045000D03*
X51491800Y-74045000D03*
%TD*%
D52*
%TO.C,U203*%
X47366800Y-70545000D03*
X47866926Y-70545000D03*
X48367052Y-70545000D03*
X48867178Y-70545000D03*
X48867178Y-68949600D03*
X48367052Y-68949600D03*
X47866926Y-68949600D03*
X47366800Y-68949600D03*
%TD*%
D31*
%TO.C,J103*%
X71090000Y-157500000D03*
D28*
X73630000Y-157500000D03*
%TD*%
D36*
%TO.C,C201*%
X56320101Y-90615000D03*
X56320101Y-91750000D03*
%TD*%
D19*
%TO.C,R309*%
X164500000Y-139902500D03*
X164500000Y-141097500D03*
%TD*%
D18*
%TO.C,R118*%
X133325000Y-32000000D03*
X131500000Y-32000000D03*
%TD*%
D27*
%TO.C,J101*%
X38270000Y-17132500D03*
D28*
X35730000Y-17132500D03*
%TD*%
D53*
%TO.C,C317*%
X187500000Y-134867677D03*
D54*
X187500000Y-129867677D03*
%TD*%
D55*
%TO.C,C226*%
X60050000Y-70030000D03*
X60050000Y-68895000D03*
%TD*%
D18*
%TO.C,R105*%
X133325000Y-24500000D03*
X131500000Y-24500000D03*
%TD*%
D19*
%TO.C,R110*%
X157300000Y-27500000D03*
X157300000Y-28695000D03*
%TD*%
D17*
%TO.C,C323*%
X185000000Y-143000000D03*
X185000000Y-146125000D03*
%TD*%
D42*
%TO.C,U302*%
X88600000Y-141825002D03*
X88600000Y-142325001D03*
X88600000Y-142825000D03*
X91400000Y-142825000D03*
X91400000Y-142325001D03*
X91400000Y-141825002D03*
D43*
X90750001Y-141300002D03*
X90250000Y-141300002D03*
X89750000Y-141300002D03*
X89249999Y-141300002D03*
%TD*%
D56*
%TO.C,C219*%
X47466800Y-66407500D03*
X47466800Y-64682500D03*
%TD*%
D57*
%TO.C,R202*%
X57020101Y-103395000D03*
X57020101Y-102200000D03*
%TD*%
D27*
%TO.C,J110*%
X117855000Y-18632500D03*
D28*
X115315000Y-18632500D03*
X112775000Y-18632500D03*
X110235000Y-18632500D03*
%TD*%
D19*
%TO.C,R313*%
X176500000Y-139000000D03*
X176500000Y-140195000D03*
%TD*%
%TO.C,R304*%
X127500000Y-140000000D03*
X127500000Y-141195000D03*
%TD*%
D17*
%TO.C,C313*%
X118500000Y-143500000D03*
X118500000Y-146625000D03*
%TD*%
D33*
%TO.C,C211*%
X31000000Y-60500000D03*
X34125000Y-60500000D03*
%TD*%
D44*
%TO.C,R206*%
X53945101Y-96975000D03*
X55770101Y-96975000D03*
%TD*%
D42*
%TO.C,U307*%
X194600000Y-141325002D03*
X194600000Y-141825001D03*
X194600000Y-142325000D03*
X197400000Y-142325000D03*
X197400000Y-141825001D03*
X197400000Y-141325002D03*
D43*
X196750001Y-140800002D03*
X196250000Y-140800002D03*
X195750000Y-140800002D03*
X195249999Y-140800002D03*
%TD*%
D27*
%TO.C,J111*%
X105815000Y-18632500D03*
D28*
X103275000Y-18632500D03*
X100735000Y-18632500D03*
X98195000Y-18632500D03*
%TD*%
D51*
%TO.C,C224*%
X66050000Y-72125000D03*
X66050000Y-69000000D03*
%TD*%
D41*
%TO.C,C207*%
X78620101Y-94100000D03*
X78620101Y-97225000D03*
%TD*%
D17*
%TO.C,C326*%
X190000000Y-143000000D03*
X190000000Y-146125000D03*
%TD*%
D19*
%TO.C,R113*%
X149750000Y-23000000D03*
X149750000Y-24195000D03*
%TD*%
D43*
%TO.C,U201*%
X54070100Y-95400000D03*
X54570101Y-95400000D03*
X55070101Y-95400000D03*
X55570102Y-95400000D03*
D42*
X56220101Y-94930001D03*
D58*
X55670102Y-93630001D03*
D42*
X56220101Y-93129999D03*
D59*
X54020100Y-93010002D03*
D60*
X54170100Y-94210000D03*
D42*
X53420101Y-94930001D03*
%TD*%
D29*
%TO.C,C318*%
X150500000Y-143000000D03*
D30*
X150500000Y-146500000D03*
%TD*%
D42*
%TO.C,U202*%
X34389998Y-55950000D03*
X34389998Y-55449999D03*
X34389998Y-54949999D03*
X34389998Y-54449998D03*
D43*
X33919999Y-53799999D03*
D61*
X32619999Y-54349998D03*
D43*
X32119997Y-53799999D03*
D62*
X32000000Y-56000000D03*
D63*
X33199998Y-55850000D03*
D43*
X33919999Y-56599999D03*
%TD*%
D39*
%TO.C,R203*%
X57270101Y-96430000D03*
X57270101Y-98255000D03*
%TD*%
D18*
%TO.C,R104*%
X133325000Y-22990000D03*
X131500000Y-22990000D03*
%TD*%
D17*
%TO.C,C314*%
X131000000Y-143500000D03*
X131000000Y-146625000D03*
%TD*%
D19*
%TO.C,R308*%
X122500000Y-139500000D03*
X122500000Y-140695000D03*
%TD*%
D64*
%TO.C,C209*%
X58820101Y-95500000D03*
X58820101Y-97225000D03*
%TD*%
D45*
%TO.C,C215*%
X32075000Y-29600000D03*
X35200000Y-29600000D03*
%TD*%
D36*
%TO.C,C204*%
X51320101Y-93000000D03*
X51320101Y-94135000D03*
%TD*%
D19*
%TO.C,R305*%
X70000000Y-139500000D03*
X70000000Y-140695000D03*
%TD*%
D36*
%TO.C,C309*%
X85500000Y-144000000D03*
X85500000Y-145135000D03*
%TD*%
D19*
%TO.C,R111*%
X154800000Y-26000000D03*
X154800000Y-27195000D03*
%TD*%
D17*
%TO.C,C304*%
X66500000Y-143500000D03*
X66500000Y-146625000D03*
%TD*%
D42*
%TO.C,U305*%
X160600000Y-141325002D03*
X160600000Y-141825001D03*
X160600000Y-142325000D03*
X163400000Y-142325000D03*
X163400000Y-141825001D03*
X163400000Y-141325002D03*
D43*
X162750001Y-140800002D03*
X162250000Y-140800002D03*
X161750000Y-140800002D03*
X161249999Y-140800002D03*
%TD*%
D38*
%TO.C,C213*%
X32000000Y-58500000D03*
X33135000Y-58500000D03*
%TD*%
D18*
%TO.C,R215*%
X45591800Y-67645000D03*
X43766800Y-67645000D03*
%TD*%
D33*
%TO.C,C102*%
X36235000Y-110500000D03*
X39360000Y-110500000D03*
%TD*%
D36*
%TO.C,C312*%
X112000000Y-144000000D03*
X112000000Y-145135000D03*
%TD*%
D65*
%TO.C,L201*%
X59820101Y-85500000D03*
X74179899Y-85500000D03*
%TD*%
D26*
%TO.C,U102*%
X34000000Y-158000000D03*
X42000000Y-158000000D03*
D66*
X34000000Y-150000000D03*
X42000000Y-150000000D03*
%TD*%
D31*
%TO.C,J108*%
X177550000Y-157000000D03*
D28*
X180090000Y-157000000D03*
%TD*%
D31*
%TO.C,J107*%
X160550000Y-157000000D03*
D28*
X163090000Y-157000000D03*
%TD*%
D31*
%TO.C,J105*%
X106050000Y-157500000D03*
D28*
X108590000Y-157500000D03*
%TD*%
D19*
%TO.C,R112*%
X152250000Y-24500000D03*
X152250000Y-25695000D03*
%TD*%
%TO.C,R311*%
X198500000Y-140000000D03*
X198500000Y-141195000D03*
%TD*%
D36*
%TO.C,C327*%
X192000000Y-143000000D03*
X192000000Y-144135000D03*
%TD*%
D38*
%TO.C,C227*%
X48366800Y-62045000D03*
X49501800Y-62045000D03*
%TD*%
M02*
